<svg xmlns="http://www.w3.org/2000/svg" width="116" height="105" viewBox="0 0 116 105">
    <g fill="#69CED7" fill-rule="nonzero">
        <path d="M115.334 75.132l-5.496-5.476a2.245 2.245 0 0 0-3.185.013 2.27 2.27 0 0 0 .013 3.2l5.496 5.475a2.24 2.24 0 0 0 1.586.656 2.24 2.24 0 0 0 1.599-.67c.876-.886.87-2.319-.013-3.198zM104.415 64.586a1.998 1.998 0 0 0-2.827 0l-.003.003a1.998 1.998 0 1 0 2.83 2.824 2 2 0 0 0 0-2.827z"/>
        <path d="M84.593 74.399l21.917-21.906c3.32-3.318 3.32-8.716 0-12.034a8.46 8.46 0 0 0-4.106-2.27c.517-1.11.79-2.327.79-3.587 0-2.273-.886-4.41-2.494-6.017a8.448 8.448 0 0 0-4.572-2.368c.97-2.954.285-6.338-2.062-8.683a8.465 8.465 0 0 0-4.569-2.362c.28-.85.429-1.75.429-2.671 0-2.273-.886-4.41-2.494-6.017a8.461 8.461 0 0 0-6.02-2.492 8.47 8.47 0 0 0-4.066 1.03l-.218-.234A15.08 15.08 0 0 0 66.126 0h-17.74a2.259 2.259 0 0 0-2.26 2.258V5.22c0 1.185.2 2.339.584 3.424a8.505 8.505 0 0 0-3.267-.647 8.461 8.461 0 0 0-6.02 2.492c-2.348 2.346-3.033 5.732-2.06 8.688a8.467 8.467 0 0 0-4.575 2.362 8.452 8.452 0 0 0-2.493 6.017c0 .92.147 1.818.427 2.667a8.45 8.45 0 0 0-4.568 2.367c-2.592 2.591-3.16 6.452-1.703 9.599a8.458 8.458 0 0 0-4.107 2.275c-3.32 3.318-3.32 8.716 0 12.034l4.507 4.505L.661 83.18a2.258 2.258 0 1 0 3.196 3.193L26.26 63.981a8.464 8.464 0 0 0 4.207 1.11 8.46 8.46 0 0 0 6.02-2.492 8.484 8.484 0 0 0 2.482-6.36 8.492 8.492 0 0 0 6.364-2.48 8.452 8.452 0 0 0 2.485-6.36c.113.004.226.008.34.008 2.18 0 4.36-.83 6.02-2.489a8.452 8.452 0 0 0 2.485-6.36 8.49 8.49 0 0 0 6.36-2.48c3.119-3.117 3.306-8.071.564-11.41l14.998-14.99a3.969 3.969 0 0 1 2.825-1.17 3.97 3.97 0 0 1 2.825 1.17 3.965 3.965 0 0 1 1.17 2.823c0 1.067-.415 2.07-1.17 2.824l-2.211 2.21-8.023 8.018a2.258 2.258 0 1 0 3.194 3.194l8.024-8.019a4.001 4.001 0 0 1 5.65 0 3.996 3.996 0 0 1 0 5.647l-2.212 2.21-5.811 5.81a2.258 2.258 0 1 0 3.195 3.193l5.811-5.809a3.969 3.969 0 0 1 2.825-1.17 3.97 3.97 0 0 1 2.825 1.17 3.965 3.965 0 0 1 1.17 2.824c0 1.066-.415 2.07-1.17 2.823l-3.035 3.034-2.777 2.775a2.258 2.258 0 1 0 3.195 3.194l2.779-2.777a4.002 4.002 0 0 1 5.648.002 3.996 3.996 0 0 1 0 5.647L81.395 71.206A30.614 30.614 0 0 1 60.8 80.174a2.26 2.26 0 0 0-1.52.663l-20.246 20.311a2.257 2.257 0 0 0 1.6 3.852c.58 0 1.16-.221 1.601-.664l14.892-14.94a21.009 21.009 0 0 0 12.755 3.28l11.655 11.65c.441.44 1.02.661 1.598.661a2.258 2.258 0 0 0 1.597-3.855L72.34 88.745a2.261 2.261 0 0 0-1.782-.654l-.717.059a16.5 16.5 0 0 1-9.427-2.051l1.452-1.457A35.114 35.114 0 0 0 84.593 74.4zm-51.3-14.993a3.97 3.97 0 0 1-2.824 1.17 3.968 3.968 0 0 1-2.825-1.17l-6.105-6.101a3.996 3.996 0 0 1 0-5.648 3.97 3.97 0 0 1 2.825-1.17c1.067 0 2.07.416 2.825 1.17l6.105 6.102a3.997 3.997 0 0 1 0 5.647zm8.846-8.84a4.002 4.002 0 0 1-5.65 0l-6.105-6.103-3.036-3.033a3.996 3.996 0 0 1 0-5.647 3.97 3.97 0 0 1 2.825-1.17c1.068 0 2.07.415 2.825 1.17l9.14 9.135a3.966 3.966 0 0 1 1.17 2.823c0 1.067-.414 2.07-1.169 2.824zm8.845-8.842a4.002 4.002 0 0 1-5.65 0L33.982 30.38a3.965 3.965 0 0 1-1.17-2.823c0-1.067.416-2.07 1.17-2.824a3.984 3.984 0 0 1 2.825-1.168c1.023 0 2.045.39 2.824 1.166l5.173 5.171 6.18 6.176a3.966 3.966 0 0 1 1.17 2.824c0 1.067-.415 2.07-1.17 2.823zm8.845-8.84a4.001 4.001 0 0 1-5.65 0L42.828 21.538l-.004-.003-2.208-2.207a3.996 3.996 0 0 1 0-5.647 3.984 3.984 0 0 1 2.826-1.168c1.023 0 2.046.39 2.824 1.168L59.83 27.236a3.965 3.965 0 0 1 1.17 2.824c0 1.067-.415 2.07-1.17 2.824zm.594-11.44l-6.205-6.202c.704.15 1.427.23 2.163.23h.05l6.2-.03a2.259 2.259 0 0 0-.01-4.516h-.01l-6.2.029h-.029a5.702 5.702 0 0 1-4.048-1.67 5.696 5.696 0 0 1-1.69-4.066v-.703h15.482c2.908 0 5.712 1.22 7.694 3.348l.092.099-13.489 13.48z"/>
    </g>
</svg>
