<svg xmlns="http://www.w3.org/2000/svg" width="116" height="107" viewBox="0 0 116 107">
    <g fill="#69CED7" fill-rule="nonzero">
        <path d="M49.416.586A2.02 2.02 0 0 0 48 0c-.526 0-1.042.214-1.414.586A2.015 2.015 0 0 0 46 2c0 .526.214 1.042.586 1.414.372.372.888.586 1.414.586a2.02 2.02 0 0 0 1.416-.586C49.788 3.042 50 2.526 50 2c0-.526-.212-1.042-.584-1.414zM79.887 37.958l-1.86-9.588a20.01 20.01 0 0 0-5.4-10.28l-3.18-3.224V2.282c0-1.26-1.004-2.282-2.243-2.282-1.24 0-2.244 1.022-2.244 2.282v13.531c0 .606.237 1.188.66 1.616l3.838 3.893a15.442 15.442 0 0 1 4.167 7.93l1.859 9.589c.072.374-.004.753-.216 1.068a1.373 1.373 0 0 1-.902.591 1.388 1.388 0 0 1-1.585-1.052l-.961-3.984c-.339-1.404-1.608-2.298-3.02-2.124-1.41.174-2.435 1.349-2.435 2.794v18.563a1.32 1.32 0 0 1-1.306 1.329c-.662 0-1.21-.504-1.294-1.154v-9.694c0-1.26-1.004-2.282-2.244-2.282h-.012c-1.24 0-2.244 1.022-2.244 2.282v9.52c0 .124.005.247.012.37v3.04a1.32 1.32 0 0 1-1.306 1.328 1.32 1.32 0 0 1-1.307-1.329v-3.041c.008-.122.013-.245.013-.369v-9.519c0-1.26-1.005-2.282-2.244-2.282h-.012c-1.24 0-2.244 1.022-2.244 2.282v9.693a1.315 1.315 0 0 1-1.294 1.155 1.32 1.32 0 0 1-1.307-1.329v-3.404c.008-.122.013-.245.013-.369v-5.746c0-1.26-1.005-2.282-2.244-2.282H47.332c-1.24 0-2.244 1.022-2.244 2.282v5.92a1.315 1.315 0 0 1-1.294 1.155 1.32 1.32 0 0 1-1.306-1.329V30.858c0-4.125 1.581-8 4.453-10.913l2.481-2.516c.422-.428.66-1.01.66-1.616V10.42c0-1.26-1.005-2.282-2.244-2.282-1.24 0-2.244 1.022-2.244 2.282v4.446l-1.822 1.847C40.05 20.488 38 25.51 38 30.858v20.066c0 3.25 2.6 5.893 5.794 5.893.556 0 1.092-.081 1.601-.23.776 2.325 2.942 4.003 5.487 4.003.6 0 1.178-.093 1.721-.266C53.467 62.478 55.547 64 57.97 64c2.424 0 4.505-1.522 5.368-3.675a5.682 5.682 0 0 0 1.721.265c3.195 0 5.794-2.644 5.794-5.893v-10.63a5.782 5.782 0 0 0 4.292.928 5.82 5.82 0 0 0 3.825-2.506 6.01 6.01 0 0 0 .917-4.531zM56.22 83.743a5.89 5.89 0 0 0-1.001-1.292 5.912 5.912 0 0 0 .668-6.807 5.84 5.84 0 0 0-1.09-1.375 5.874 5.874 0 0 0 1.028-2.088 5.868 5.868 0 0 0-.582-4.454 5.823 5.823 0 0 0-5.846-2.878 5.905 5.905 0 0 0-.64-1.642 5.796 5.796 0 0 0-3.54-2.735 5.753 5.753 0 0 0-4.422.587l-9.106 5.294a5.962 5.962 0 0 0-1.363-4.228 5.85 5.85 0 0 0-4.07-2.107 5.843 5.843 0 0 0-4.343 1.452l-7.277 6.406a19.85 19.85 0 0 0-6.09 9.86L7.385 82.13 1.13 85.767a2.282 2.282 0 0 0-.826 3.105A2.252 2.252 0 0 0 2.26 90.01c.382 0 .77-.098 1.126-.305l7.067-4.109c.52-.302.898-.8 1.052-1.383l1.404-5.307a15.313 15.313 0 0 1 4.698-7.606l7.277-6.406c.285-.25.648-.372 1.024-.342.377.029.717.205.96.497.47.564.425 1.405-.103 1.914l-2.93 2.828a2.786 2.786 0 0 0-.3 3.706c.858 1.152 2.38 1.466 3.617.745l15.9-9.245a1.307 1.307 0 0 1 1.795.484c.176.307.223.663.132 1.005-.08.299-.26.55-.507.728l-8.265 4.805a2.282 2.282 0 0 0-.826 3.105l.003.006.003.005a2.248 2.248 0 0 0 3.083.832l8.154-4.74c.106-.062.209-.128.31-.195l2.605-1.515a1.31 1.31 0 0 1 1.795.485 1.33 1.33 0 0 1-.481 1.808l-2.606 1.515c-.108.054-.215.11-.321.172l-8.154 4.741a2.282 2.282 0 0 0-.523 3.516 2.236 2.236 0 0 0 2.787.433l8.302-4.828a1.31 1.31 0 0 1 1.64.56 1.33 1.33 0 0 1-.481 1.808l-2.915 1.695a6.072 6.072 0 0 0-.323.173l-4.922 2.862a2.282 2.282 0 0 0 1.137 4.253c.383 0 .771-.098 1.126-.305l5.072-2.948a1.307 1.307 0 0 1 1.64.56 1.33 1.33 0 0 1-.482 1.808l-7.234 4.206-9.954 5.788a15.048 15.048 0 0 1-11.587 1.528l-3.403-.924a2.242 2.242 0 0 0-1.716.227l-7.067 4.109a2.282 2.282 0 0 0-.826 3.105A2.253 2.253 0 0 0 12 107c.383 0 .771-.098 1.127-.305l6.255-3.637 2.498.678c5.105 1.385 10.44.682 15.02-1.98l5.7-3.315 4.253-2.473.386-.225 6.848-3.982c2.783-1.618 3.74-5.215 2.133-8.018zM114.873 85.886l-6.242-3.617-.665-2.504c-1.358-5.117-4.623-9.394-9.193-12.042l-9.933-5.756-7.22-4.182a5.76 5.76 0 0 0-4.413-.584 5.78 5.78 0 0 0-3.531 2.72 5.825 5.825 0 0 0-.606 1.509 5.767 5.767 0 0 0-2.645.087 5.78 5.78 0 0 0-3.532 2.72 5.868 5.868 0 0 0-.638 1.632 5.818 5.818 0 0 0-5.834 2.862 5.863 5.863 0 0 0 .447 6.502 5.849 5.849 0 0 0-1.09 1.372c-1.603 2.787-.648 6.364 2.129 7.974l9.087 5.265a5.896 5.896 0 0 0-2.948 3.284 5.891 5.891 0 0 0 .222 4.578 5.858 5.858 0 0 0 3.413 3.045l9.128 3.126a19.58 19.58 0 0 0 11.499.38l4.35-1.177 6.243 3.617a2.25 2.25 0 0 0 3.077-.827 2.265 2.265 0 0 0-.825-3.088l-7.052-4.087a2.243 2.243 0 0 0-1.712-.225l-5.254 1.421c-2.93.793-5.998.692-8.87-.292l-9.13-3.127a1.382 1.382 0 0 1-.804-.718 1.393 1.393 0 0 1 1.642-1.942l3.888 1.136c1.37.4 2.771-.265 3.331-1.583a2.761 2.761 0 0 0-1.166-3.508L64.16 80.663a1.32 1.32 0 0 1-.48-1.798 1.304 1.304 0 0 1 1.636-.557l8.286 4.8a2.234 2.234 0 0 0 2.78-.428 2.265 2.265 0 0 0-.521-3.497l-8.136-4.715a6.094 6.094 0 0 0-.324-.173l-2.598-1.505a1.32 1.32 0 0 1-.48-1.798c.175-.305.458-.522.797-.614a1.3 1.3 0 0 1 .995.132l2.598 1.506c.101.067.204.133.31.194l8.137 4.714a2.234 2.234 0 0 0 2.78-.43 2.265 2.265 0 0 0-.521-3.497L71.17 68.22a1.303 1.303 0 0 1-.375-1.723c.175-.304.458-.522.796-.613a1.3 1.3 0 0 1 .995.132l2.91 1.686c.1.067.203.132.309.193l4.912 2.846a2.234 2.234 0 0 0 2.78-.43 2.265 2.265 0 0 0-.521-3.497l-5.06-2.931a1.32 1.32 0 0 1-.338-1.701c.175-.305.457-.522.796-.613a1.3 1.3 0 0 1 .995.131l6.833 3.96.386.223 4.244 2.46 5.689 3.296a15.157 15.157 0 0 1 7.093 9.29l.905 3.41a2.26 2.26 0 0 0 1.05 1.376l7.052 4.086a2.25 2.25 0 0 0 3.077-.827 2.265 2.265 0 0 0-.825-3.087z"/>
    </g>
</svg>
