<svg xmlns="http://www.w3.org/2000/svg" width="116" height="97" viewBox="0 0 116 97">
    <g fill="#69CED7" fill-rule="nonzero">
        <path d="M13.414 32.586A2.014 2.014 0 0 0 12 32c-.526 0-1.042.214-1.414.586A2.015 2.015 0 0 0 10 34c0 .526.214 1.042.586 1.414.372.372.888.586 1.414.586.526 0 1.042-.214 1.414-.586.372-.372.586-.888.586-1.414 0-.526-.214-1.042-.586-1.414z"/>
        <path d="M103.846 19.835a10.688 10.688 0 0 0 1.98-6.207v-2.91C105.826 4.808 101.04 0 95.156 0s-10.67 4.808-10.67 10.718v2.91c0 2.312.735 4.454 1.98 6.207-4.108.309-7.696 2.519-9.888 5.758-2.192-3.24-5.78-5.45-9.888-5.758a10.688 10.688 0 0 0 1.98-6.207v-2.91C68.67 4.808 63.883 0 58 0c-5.884 0-10.67 4.808-10.67 10.718v2.91c0 2.312.735 4.454 1.98 6.207-4.109.309-7.697 2.519-9.889 5.758-2.192-3.24-5.78-5.45-9.888-5.758a10.688 10.688 0 0 0 1.98-6.207v-2.91C31.513 4.808 26.726 0 20.843 0c-5.884 0-10.67 4.808-10.67 10.718v2.91c0 2.312.735 4.454 1.98 6.207C5.366 20.345 0 26.05 0 32.994V48.9c0 5.747 4.1 10.548 9.516 11.612v34.212A2.27 2.27 0 0 0 11.78 97h18.125a2.27 2.27 0 0 0 2.266-2.276V60.512a11.794 11.794 0 0 0 7.25-4.646 11.795 11.795 0 0 0 7.25 4.646v34.212A2.27 2.27 0 0 0 48.938 97h18.124a2.27 2.27 0 0 0 2.266-2.276V60.512a11.794 11.794 0 0 0 7.25-4.646 11.795 11.795 0 0 0 7.25 4.646v34.212A2.27 2.27 0 0 0 86.094 97h18.125a2.27 2.27 0 0 0 2.265-2.276V83.117a2.27 2.27 0 0 0-2.265-2.275 2.27 2.27 0 0 0-2.266 2.275v9.331h-4.531V64.911a2.27 2.27 0 0 0-2.266-2.276 2.27 2.27 0 0 0-2.265 2.276v27.537h-4.532V55.74h13.594v9.17a2.27 2.27 0 0 0 2.266 2.277 2.27 2.27 0 0 0 2.265-2.276v-4.399C111.9 59.448 116 54.647 116 48.9V32.994c0-6.944-5.367-12.65-12.154-13.159zm-89.141-9.117c0-3.4 2.754-6.166 6.139-6.166 3.385 0 6.139 2.766 6.139 6.166v2.91c0 3.4-2.754 6.166-6.14 6.166-3.384 0-6.138-2.766-6.138-6.166v-2.91zm12.936 81.73h-4.532V64.911a2.27 2.27 0 0 0-2.265-2.276 2.27 2.27 0 0 0-2.266 2.276v27.537h-4.531V55.74H27.64v36.708zM37.156 48.9a7.291 7.291 0 0 1-4.984 6.916V33.96a2.27 2.27 0 0 0-2.266-2.276 2.27 2.27 0 0 0-2.265 2.276v17.228H14.047v-9.035a2.27 2.27 0 0 0-2.266-2.276 2.27 2.27 0 0 0-2.265 2.276v13.663A7.291 7.291 0 0 1 4.53 48.9V32.994c0-4.769 3.862-8.648 8.61-8.648h15.406c4.747 0 8.61 3.88 8.61 8.648V48.9zm14.705-38.182c0-3.4 2.754-6.166 6.139-6.166 3.385 0 6.139 2.766 6.139 6.166v2.91c0 3.4-2.754 6.166-6.139 6.166-3.385 0-6.139-2.766-6.139-6.166v-2.91zm12.936 81.73h-4.531V64.911A2.27 2.27 0 0 0 58 62.635a2.27 2.27 0 0 0-2.266 2.276v27.537h-4.53V55.74h13.593v36.708zM74.313 48.9a7.291 7.291 0 0 1-4.985 6.916V33.96a2.27 2.27 0 0 0-2.266-2.276 2.27 2.27 0 0 0-2.265 2.276v17.228H51.203V33.96a2.27 2.27 0 0 0-2.266-2.276 2.27 2.27 0 0 0-2.265 2.276v21.856a7.291 7.291 0 0 1-4.984-6.916V32.994c0-4.769 3.862-8.648 8.609-8.648h15.406c4.747 0 8.61 3.88 8.61 8.648V48.9zm14.704-38.182c0-3.4 2.754-6.166 6.14-6.166 3.384 0 6.138 2.766 6.138 6.166v2.91c0 3.4-2.754 6.166-6.139 6.166-3.385 0-6.139-2.766-6.139-6.166v-2.91zM111.47 48.9a7.291 7.291 0 0 1-4.985 6.916V33.96a2.27 2.27 0 0 0-2.265-2.276 2.27 2.27 0 0 0-2.266 2.276v17.228H88.36V33.96a2.27 2.27 0 0 0-2.265-2.276 2.27 2.27 0 0 0-2.266 2.276v21.856a7.291 7.291 0 0 1-4.984-6.916V32.994c0-4.769 3.862-8.648 8.61-8.648h15.405c4.748 0 8.61 3.88 8.61 8.648V48.9z"/>
        <path d="M105.414 72.586A2.01 2.01 0 0 0 104 72c-.526 0-1.042.214-1.414.586A2.015 2.015 0 0 0 102 74c0 .528.214 1.042.586 1.414.372.372.888.586 1.414.586.526 0 1.042-.214 1.414-.586.372-.372.586-.888.586-1.414 0-.526-.214-1.042-.586-1.414z"/>
    </g>
</svg>
