<svg xmlns="http://www.w3.org/2000/svg" width="116" height="116" viewBox="0 0 116 116">
    <g fill="#69CED7" fill-rule="nonzero">
        <path d="M30.342 42.92L3.834 15.677c-.877-.901-2.299-.901-3.176 0a2.354 2.354 0 0 0 0 3.264l25.849 26.567-.004 3.181c-.002 1.275 1.002 2.31 2.242 2.312h.003c1.24 0 2.244-1.031 2.246-2.305L31 44.556c0-.613-.236-1.202-.658-1.635zM50.768 26.5h-.003l-5.266.007L19.81.657a2.223 2.223 0 0 0-3.156 0 2.256 2.256 0 0 0 0 3.177l26.343 26.508c.42.421.987.658 1.579.658h.003l6.192-.009A2.239 2.239 0 0 0 53 28.742a2.239 2.239 0 0 0-2.232-2.242zM99.414.586A2.015 2.015 0 0 0 98 0c-.526 0-1.042.214-1.414.586A2.015 2.015 0 0 0 96 2c0 .526.214 1.042.586 1.414.372.372.888.586 1.414.586.526 0 1.042-.214 1.414-.586.372-.372.586-.888.586-1.414 0-.526-.214-1.042-.586-1.414zM93.337 7.652a2.292 2.292 0 0 0-3.202 0L70.707 26.749l-3.12-.005h-.033c-5.99 0-11.62 2.292-15.856 6.456l-2.035 2a2.2 2.2 0 0 0 0 3.148 2.278 2.278 0 0 0 1.601.652c.58 0 1.159-.217 1.6-.652l2.036-2c3.381-3.324 7.874-5.153 12.655-5.153h.025l4.06.006h.003c.6 0 1.177-.235 1.601-.652l20.093-19.75a2.2 2.2 0 0 0 0-3.147zM115.342 16.654a2.256 2.256 0 0 0-3.176 0L85.658 42.998c-.422.419-.659.988-.658 1.581l.009 6.192A2.239 2.239 0 0 0 87.255 53h.003a2.239 2.239 0 0 0 2.243-2.235l-.008-5.266 25.85-25.689a2.222 2.222 0 0 0 0-3.156zM115.332 96.14l-26.23-26.019.005-3.116a22.118 22.118 0 0 0-1.722-8.61 2.286 2.286 0 0 0-2.979-1.222 2.254 2.254 0 0 0-1.232 2.954A17.655 17.655 0 0 1 84.55 67l-.006 4.054c0 .6.24 1.177.667 1.602l26.9 26.683a2.282 2.282 0 0 0 1.611.662c.583 0 1.167-.22 1.611-.662.89-.883.89-2.315 0-3.197zM99.346 112.166L73.002 85.658A2.226 2.226 0 0 0 71.424 85h-.003l-6.192.009A2.239 2.239 0 0 0 63 87.258c.002 1.24 1 2.242 2.232 2.242h.003l5.266-.007 25.689 25.85a2.219 2.219 0 0 0 3.156 0c.872-.878.872-2.3 0-3.177zM19.414 112.586A2.014 2.014 0 0 0 18 112c-.526 0-1.042.214-1.414.586A2.015 2.015 0 0 0 16 114c0 .526.214 1.042.586 1.414.372.372.888.586 1.414.586.526 0 1.042-.214 1.414-.586.374-.372.586-.888.586-1.414 0-.526-.212-1.042-.586-1.414z"/>
        <path d="M81.131 57.295a6.36 6.36 0 0 0-1.716-1.218c.53-.94.814-2.005.814-3.113 0-1.7-.665-3.3-1.872-4.503a6.365 6.365 0 0 0-1.83-1.274 6.362 6.362 0 0 0-1.236-7.269c-1.97-1.962-4.914-2.372-7.293-1.233a6.373 6.373 0 0 0-1.28-1.823c-2.493-2.483-6.547-2.482-9.04 0l-9.056 9.025a6.452 6.452 0 0 0-2.731-4.694 6.45 6.45 0 0 0-4.908-1.058 6.436 6.436 0 0 0-4.194 2.752l-6.214 9.234a22.257 22.257 0 0 0-3.808 12.502l.008 5.333L.665 95.975a2.255 2.255 0 0 0 0 3.197 2.266 2.266 0 0 0 1.604.662c.58 0 1.16-.22 1.604-.662L30.649 72.49a2.258 2.258 0 0 0 .665-1.602l-.01-6.271a17.762 17.762 0 0 1 3.04-9.978l6.213-9.234a1.93 1.93 0 0 1 1.259-.825 1.939 1.939 0 0 1 2.02 2.91l-2.428 3.99a2.827 2.827 0 0 0 .684 3.741 2.851 2.851 0 0 0 3.809-.228l14.986-14.934a1.86 1.86 0 0 1 2.622 0c.35.35.543.813.543 1.306 0 .42-.14.816-.396 1.14l-8.869 8.858a2.255 2.255 0 0 0 0 3.197 2.275 2.275 0 0 0 3.209 0L69.46 43.115a1.86 1.86 0 0 1 2.622 0c.723.72.723 1.892 0 2.613L60.608 57.163a2.255 2.255 0 0 0 0 3.197 2.266 2.266 0 0 0 1.604.662c.58 0 1.161-.221 1.604-.662l8.879-8.848a1.86 1.86 0 0 1 2.454.146c.35.349.543.813.543 1.306 0 .494-.192.957-.543 1.306l-8.722 8.691a2.255 2.255 0 0 0 0 3.198 2.266 2.266 0 0 0 1.605.662c.58 0 1.16-.221 1.604-.662l5.832-5.812a1.86 1.86 0 0 1 2.455.146c.35.348.543.812.543 1.306 0 .493-.192.957-.543 1.306l-16.2 16.143a17.844 17.844 0 0 1-12.68 5.233h-.025l-4.068-.005h-.003c-.602 0-1.18.238-1.604.662L22.265 106.14a2.255 2.255 0 0 0 0 3.197 2.266 2.266 0 0 0 1.604.662c.58 0 1.161-.22 1.604-.662l20.412-20.34 3.126.005h.033c6.002 0 11.643-2.329 15.888-6.558l16.2-16.143a6.36 6.36 0 0 0 0-9.007z"/>
    </g>
</svg>
