<svg xmlns="http://www.w3.org/2000/svg" width="56" height="60" viewBox="0 0 56 60">
    <g fill="none" fill-rule="evenodd" transform="translate(2 2)">
        <path stroke="#69CED7" stroke-width="3.099" d="M18.545 25.258c1.372-2.687 1.705-5.363 1-8.029 4.836-6.614 7.253-10.885 7.253-12.812 0-2.89-2.03-4.282-4.126-3.17-2.096 1.11-9.338 6.953-9.177 12.208-1.03.01-10.314-.308-13.13 10.143-1.445 5.557 1.398 8.206 8.531 7.95.592 8.884 4.147 13.727 10.663 14.529.026.024.026 1.561 0 4.611-2.756.166-4.444.72-5.064 1.662-.598 1.02-.598 2.367 1.333 3.28.16.004 8.195.004 24.108 0 4.046-3.766 6.068-7.68 6.068-11.741.449-.152 4.402-1.238 5.343-3.802.942-2.565.794-5.197 0-5.837-.794-.64-5.069.87-5.887 3.06-.73-2.28-7.697-17.407-26.915-12.052z"/>
        <path stroke="#69CED7" stroke-linecap="round" stroke-width="3.099" d="M17.684.424c-.843-.565-1.635-.565-2.376 0C11.936 2.69 10.166 7.122 10 13.72"/>
        <path stroke="#69CED7" stroke-linecap="round" stroke-width="3.1" d="M28.933 36.964c-2.51 4.08-1.924 7.648 1.76 10.706.23.219-6.707 1.953-4.784 6.963"/>
        <circle cx="10" cy="21" r="2" fill="#69CED7"/>
    </g>
</svg>
