<svg xmlns="http://www.w3.org/2000/svg" width="50" height="50" viewBox="0 0 50 50">
    <g fill="#025776" fill-rule="evenodd">
        <path d="M.905 48.454a.427.427 0 0 0-.136.25.45.45 0 0 0 .39.51l.003.002.37.05h.003a.456.456 0 0 0 .401-.153l.003-.002 34.234-34.494c.856-.578.989-.636.989-.636s3.68-1.715 6.189-4.304c2.506-2.59 4.799-4.83 4.799-4.83s1.325-1.044.098-2.19l-1.065-1.02c-1.197-1.18-2.225.146-2.225.146s-2.228 2.303-4.806 4.826c-2.576 2.522-4.232 6.177-4.232 6.177s-.061.132-.707 1.098L.905 48.452v.002z"/>
        <path d="M1.255 48.973l.315.043c.082.016.145-.036.174-.07l.053-.044 34.194-34.46c.85-.58 1.029-.675 1.062-.691.037-.015 3.667-1.723 6.111-4.247 2.482-2.562 4.781-4.812 4.803-4.836.026-.023.523-.424.544-.949.012-.299-.137-.596-.441-.878l-1.065-1.023c-.3-.297-.606-.446-.909-.416-.535.033-.933.529-.937.537-.038.042-2.274 2.353-4.823 4.85-2.513 2.458-4.168 6.067-4.182 6.102-.017.036-.117.221-.724 1.13L1.087 48.634a.19.19 0 0 0-.065.109.19.19 0 0 0 .041.145c.031.043.077.068.13.075l.062.01zm.343.55c-.034 0-.065-.004-.098-.006l-.44-.066a.698.698 0 0 1-.407-.26.687.687 0 0 1-.139-.522.677.677 0 0 1 .157-.337l.003-.01.048-.045 34.31-34.57c.565-.856.652-1.022.654-1.03.065-.144 1.703-3.72 4.285-6.246 2.545-2.492 4.776-4.796 4.8-4.82.001-.007.52-.661 1.29-.713.455-.04.896.16 1.304.56l1.063 1.019c.414.387.615.814.596 1.266-.033.756-.685 1.278-.714 1.3-.002.005-2.298 2.251-4.775 4.808-2.51 2.592-6.113 4.285-6.264 4.356-.002 0-.163.083-.951.618L2.123 49.289a.715.715 0 0 1-.525.233z"/>
        <path d="M48.423 48.911c.067.065.154.12.254.134a.462.462 0 0 0 .522-.384v-.002l.051-.365v-.003a.448.448 0 0 0-.153-.393l-.006-.003-35.12-33.623c-.589-.84-.648-.97-.648-.97S11.577 9.683 8.94 7.224C6.303 4.762 4.023 2.51 4.023 2.51s-1.063-1.302-2.23-.096L.753 3.459c-1.2 1.173.15 2.186.15 2.186s2.345 2.188 4.913 4.717c2.568 2.532 6.29 4.16 6.29 4.16s.136.059 1.117.693L48.42 48.908l.003.003z"/>
        <path d="M48.526 48.657h.002l.077.074c.038.038.072.058.107.063.054.014.11-.006.152-.038a.189.189 0 0 0 .077-.129l.055-.37c.012-.08-.035-.139-.075-.175l-35.129-33.63c-.59-.836-.686-1.01-.702-1.043-.018-.036-1.756-3.603-4.324-6.003a269.916 269.916 0 0 1-4.924-4.72c-.021-.024-.431-.512-.966-.532h-.034c-.294 0-.582.145-.862.433L.938 3.632c-.302.297-.443.599-.422.898.035.52.537.911.542.917.046.037 2.4 2.234 4.94 4.74 2.506 2.466 6.178 4.09 6.214 4.106.036.015.228.115 1.153.71l35.161 33.654zm.217.644a.704.704 0 0 1-.416-.14h-.01l-.075-.07-35.198-33.696c-.87-.556-1.042-.641-1.048-.646-.146-.063-3.787-1.675-6.36-4.208C3.099 8.042.751 5.851.728 5.83.72 5.825.054 5.316.003 4.563c-.03-.45.161-.883.571-1.283l1.037-1.041c.394-.41.831-.585 1.29-.589.769.032 1.301.672 1.323.702.004.002 2.29 2.255 4.894 4.687 2.64 2.467 4.363 6.005 4.433 6.153.003.003.088.16.632.936l35.088 33.585c.18.16.264.386.233.613l-.053.367a.711.711 0 0 1-.708.608z"/>
    </g>
</svg>
