<svg xmlns="http://www.w3.org/2000/svg" xmlns:xlink="http://www.w3.org/1999/xlink" width="40" height="40" viewBox="0 0 40 40">
    <defs>
        <path id="a" d="M0 0h39.892v39.892H0z"/>
    </defs>
    <g fill="none" fill-rule="evenodd">
        <path fill="#00293C" d="M26 15c-.551 0-1-.449-1-1a1.001 1.001 0 1 1 1 1m-6 11c-3.308 0-6-2.692-6-6s2.692-6 6-6 6 2.692 6 6-2.692 6-6 6m5.7-15H14.3c-1.82 0-3.3 1.48-3.3 3.3v11.4c0 1.82 1.48 3.3 3.3 3.3h11.4c1.819 0 3.3-1.48 3.3-3.3V14.3c0-1.82-1.48-3.3-3.3-3.3"/>
        <path fill="#00293C" d="M20 16c-2.205 0-4 1.794-4 4 0 2.205 1.795 4 4 4 2.206 0 4-1.795 4-4s-1.794-4-4-4"/>
        <g>
            <mask id="b" fill="#fff">
                <use xlink:href="#a"/>
            </mask>
            <path fill="#00293C" d="M31.944 25.945a6.06 6.06 0 0 1-6.053 6.053h-11.89a6.06 6.06 0 0 1-6.053-6.053v-11.89a6.06 6.06 0 0 1 6.053-6.053h11.89a6.06 6.06 0 0 1 6.053 6.053v11.89zM19.946 0C8.931 0 0 8.93 0 19.946c0 11.016 8.93 19.946 19.946 19.946 11.016 0 19.946-8.93 19.946-19.946C39.892 8.931 30.962 0 19.946 0z" mask="url(#b)"/>
        </g>
    </g>
</svg>
