<svg xmlns="http://www.w3.org/2000/svg" xmlns:xlink="http://www.w3.org/1999/xlink" width="40" height="40" viewBox="0 0 40 40">
    <defs>
        <path id="a" d="M0 .075h39.925V40H0z"/>
    </defs>
    <g fill="none" fill-rule="evenodd">
        <g>
            <mask id="b" fill="#fff">
                <use xlink:href="#a"/>
            </mask>
            <path fill="#33856B" d="M30.95 20.039v.007c0 3.197-.313 5.035-.932 6.083-.597 1.06-1.243 1.252-2.56 1.342-1.318.075-4.626.12-7.493.12-2.872 0-6.182-.045-7.497-.122-1.315-.089-1.962-.281-2.563-1.342-.614-1.047-.93-2.885-.93-6.083v-.011c0-3.21.316-5.035.93-6.094.601-1.061 1.25-1.255 2.564-1.33 1.314-.088 4.624-.125 7.496-.125 2.867 0 6.175.037 7.491.126 1.317.074 1.964.27 2.56 1.33.62 1.058.934 2.882.934 6.095v.004zM19.962.075C8.938.075 0 9.013 0 20.038S8.938 40 19.962 40c11.025 0 19.963-8.937 19.963-19.962S30.987.075 19.962.075z" mask="url(#b)"/>
        </g>
        <path fill="#33856B" d="M16.8 24.8l6.4-4.4-6.4-4.4z"/>
    </g>
</svg>
