<svg xmlns="http://www.w3.org/2000/svg" xmlns:xlink="http://www.w3.org/1999/xlink" width="40" height="40" viewBox="0 0 40 40">
    <defs>
        <path id="a" d="M0 0h40v40H0z"/>
    </defs>
    <g fill="none" fill-rule="evenodd">
        <mask id="b" fill="#fff">
            <use xlink:href="#a"/>
        </mask>
        <path fill="#00293C" d="M29.865 16.848c.009.204.014.41.014.618 0 6.318-4.809 13.602-13.602 13.602-2.7 0-5.213-.791-7.328-2.148a9.63 9.63 0 0 0 1.14.067c2.24 0 4.302-.764 5.938-2.046a4.786 4.786 0 0 1-4.466-3.32 4.79 4.79 0 0 0 2.16-.083 4.784 4.784 0 0 1-3.836-4.748 4.748 4.748 0 0 0 2.165.599 4.781 4.781 0 0 1-1.479-6.383 13.569 13.569 0 0 0 9.854 4.996 4.781 4.781 0 0 1 8.146-4.36 9.569 9.569 0 0 0 3.036-1.161 4.793 4.793 0 0 1-2.102 2.644 9.538 9.538 0 0 0 2.745-.752 9.688 9.688 0 0 1-2.385 2.475M20 0C8.955 0 0 8.954 0 20s8.955 20 20 20c11.046 0 20-8.954 20-20S31.046 0 20 0" mask="url(#b)"/>
    </g>
</svg>
