<svg xmlns="http://www.w3.org/2000/svg" width="100" height="15" viewBox="0 0 100 15">
    <path fill="#000" fill-rule="nonzero" d="M14.093 15H0V0h2.49v12.742h11.603V15zM37.547 2.258h-7.182V15h-2.49V2.258h-7.182V0h16.854v2.258zM67.559 15h-2.49V8.35H53.03V15h-2.49V0h2.49v6.091h12.038V0h2.491v15zM100 15h-2.885l-4.068-5.718H85.45V15h-2.49V0H94.81c1.578 0 2.816.425 3.715 1.274.9.85 1.35 2 1.35 3.45 0 1.27-.367 2.293-1.1 3.066-.679.718-1.613 1.174-2.803 1.367L100 15zm-5.562-7.977c1.923 0 2.885-.766 2.885-2.3 0-1.643-1.038-2.465-3.114-2.465H85.45v4.765h8.988z"/>
</svg>
