<svg xmlns="http://www.w3.org/2000/svg" width="62" height="61" viewBox="0 0 62 61">
    <path fill="#69CED7" fill-rule="nonzero" d="M57.133 33.766l.007-.052-.004.038c0 .005 0 .01-.003.014zm.026-.184c0 .003 0 .005-.002.007l-.012.087a.65.65 0 0 0 .014-.094zm4.014-2.144c-.095 2.005-.492 3.983-.843 5.958-.325 1.82-.986 3.592-1.695 5.291-.393.942-.79 1.88-1.306 2.768-.445.77-.925 1.53-1.41 2.279-1.043 1.596-2.345 3.048-3.675 4.406-.626.636-1.259 1.266-1.953 1.834-.834.678-1.67 1.363-2.526 2.015a15.799 15.799 0 0 1-2.408 1.504c-.92.47-1.89.861-2.853 1.226-.861.334-1.735.65-2.636.847-.862.191-1.726.337-2.599.476-2.029.325-4.046.673-6.106.727-1.984.052-3.947-.16-5.889-.553a37.434 37.434 0 0 1-2.665-.635c-.484-.135-.986-.255-1.461-.424-.506-.177-.998-.389-1.488-.598a45.14 45.14 0 0 0-.598-.238c-.941-.362-1.92-.635-2.81-1.127-.81-.445-1.591-.93-2.352-1.453-1.643-1.136-3.173-2.443-4.675-3.756a22.644 22.644 0 0 1-3.91-4.437 43.738 43.738 0 0 1-2.923-5.167C1.505 40.552.895 38.528.49 36.541a24.156 24.156 0 0 1-.454-3.213c-.061-.965-.035-1.935.01-2.902.094-2.137.41-4.225.95-6.292.238-.904.471-1.812.791-2.69.356-.982.77-1.952 1.24-2.884.425-.843.858-1.678 1.366-2.474a37.82 37.82 0 0 1 1.575-2.236c1.292-1.725 2.68-3.345 4.253-4.82 1.523-1.432 3.135-2.769 4.882-3.915 1.629-1.066 3.477-1.765 5.26-2.5.968-.412 1.933-.828 2.922-1.189.96-.353 1.949-.621 2.94-.882 1.073-.285 2.21-.386 3.312-.46C30.523.025 31.507 0 32.49 0h.256a1.964 1.964 0 0 1 1.601.852c1.111-.096 2.19.127 3.26.412.687.186 1.37.386 2.05.605a35.273 35.273 0 0 1 4.18 1.648c.74.346 1.51.687 2.202 1.125.913.57 1.725 1.266 2.556 1.953.713.591 1.431 1.199 2.08 1.865.662.67 1.298 1.372 1.929 2.066a26.508 26.508 0 0 1 3.431 4.743c.424.758.831 1.523 1.236 2.293.436.822.883 1.643 1.271 2.495.805 1.76 1.417 3.616 1.947 5.478.294 1.038.506 2.076.626 3.147.101.913.101 1.836.057 2.756zM30.325 10.223c.457.019.914.014 1.373.007.861-.012 1.72-.021 2.572.13.822.145 1.592.465 2.319.863.619.341 1.142.833 1.68 1.295.278.197.566.374.872.53.475.157.967.251 1.428.44.492.193.937.45 1.406.677.004.003.011.003.016.005.188-.103.37-.216.553-.33a7.421 7.421 0 0 1 1.551-.748 10.96 10.96 0 0 1 2.265-.513c.977-.108 1.932.073 2.871.33.095.025.189.035.283.056-.379-.421-.737-.864-1.125-1.278-.946-1.01-1.999-1.902-3.081-2.752-1.33-.988-2.8-1.777-4.317-2.45-.994-.405-2.001-.758-3.027-1.076-.954-.296-1.921-.607-2.9-.81a8.595 8.595 0 0 0-.78-.002c-.22.01-.423-.061-.62-.134-.363.774-.73 1.544-1.124 2.302-.18.353-.357.713-.562 1.054-.23.389-.492.744-.765 1.097l.12-.155c-.134.177-.27.353-.41.527-.216.29-.421.58-.593.9a.062.062 0 0 1-.005.035zm7.636 9.876c-.656-.051-1.313-.112-1.975-.134a10.859 10.859 0 0 0-1.588.085c-1.053.162-2.124.337-3.122.718-.494.228-.974.478-1.426.78-.327.289-.622.602-.906.936-.596.824-1.074 1.702-1.514 2.617-.2.509-.376 1.02-.482 1.556a6.332 6.332 0 0 0 0 .518c.056.3.13.589.228.878.132.252.278.49.442.723.217.259.443.503.692.732.53.362 1.119.652 1.695.927a45 45 0 0 0 1.285.589c1.21.48 2.446.885 3.623 1.45.93.442 1.725 1.162 2.335 1.984.523.704.883 1.572 1.12 2.42.674 2.443.424 5.009.697 7.504.061.41.14.814.269 1.207.009.017.018.033.028.047.148.09.301.167.456.243.452.158.911.261 1.38.339.226.014.447.012.67 0 .168-.036.333-.083.495-.137.41-.205.798-.445 1.177-.708.398-.346.753-.72 1.087-1.128.398-.57.73-1.155 1.022-1.784.857-2.16 1.264-4.46 1.96-6.67.172-.545.408-1.107.75-1.57.423-.575.882-1.1 1.379-1.608.543-.551 1.101-1.088 1.6-1.681a7.897 7.897 0 0 1-.788-.257c-.735-.275-1.479-.638-2.03-1.219-.449-.466-.842-.993-1.106-1.596-.376-.859-.687-1.73-.864-2.655a34.077 34.077 0 0 1-.336-2.234 7.254 7.254 0 0 0-.313-1.18 4.665 4.665 0 0 0-.264-.442 3.788 3.788 0 0 0-.365-.362 4.756 4.756 0 0 0-.393-.243 5.123 5.123 0 0 0-.704-.148 18.001 18.001 0 0 0-.499-.059c-.37-.042-.687-.11-.972-.313a1.461 1.461 0 0 1-.807.184c-.709-.05-1.415-.123-2.119-.19-.607-.06-1.212-.071-1.817-.119zM7.196 37.172c.41-1.316.754-2.658.97-4.018.083-.74.11-1.471.045-2.21a5.371 5.371 0 0 0-.224-.782 5.981 5.981 0 0 0-.534-.861 21.208 21.208 0 0 0-1.888-2.041c-.325-.299-.664-.58-.993-.869-.134.617-.294 1.229-.396 1.85a43.818 43.818 0 0 0-.242 3.244c-.038.975.002 1.93.099 2.898a29.481 29.481 0 0 0 1.445 5.6c.172.39.396.757.584 1.141l.007-.016c.221-.596.365-1.215.525-1.832.181-.701.388-1.403.602-2.104zm32.232 18.59a2.12 2.12 0 0 1-.116-.032c-1.11-.29-2.222-.612-3.354-.817-1.153-.125-2.307-.123-3.465-.092a38.982 38.982 0 0 0-3.274.203c-.777.15-1.513.4-2.246.692-.456.211-.896.459-1.341.699.779.167 1.563.317 2.349.442 2.128.233 4.246.177 6.372-.092 1.26-.18 2.525-.367 3.764-.642.447-.097.878-.233 1.31-.36zm17.684-21.834l-.002.024-.01.07c.005-.03.01-.06.012-.094zm.113-5.185c-.19-1.114-.515-2.19-.857-3.263a46.634 46.634 0 0 0-1.078-3.076c-.579-1.311-1.24-2.587-1.895-3.858a35.023 35.023 0 0 0-1.082-1.96c-.066.002-.123.037-.191.03a57.026 57.026 0 0 1-2.754-.327c-.661-.1-1.297-.313-1.951-.44a7.27 7.27 0 0 0-.907-.008 8.934 8.934 0 0 0-1.52.403c-.673.33-1.307.795-2.006 1.064.014.012.033.016.047.028.198-.087.415-.13.643-.115.325.016.65.035.967.073.415.05.864.056 1.255.202.523.203.967.429 1.415.765.51.39.899.775 1.276 1.297.32.438.517.9.722 1.4.32.792.384 1.677.532 2.517.148.843.358 1.664.657 2.464.127.269.266.53.428.777.113.127.233.245.36.358.156.096.311.184.473.266.323.118.65.219.984.299.196.047.398.082.594.13.17.044.33.096.49.16.428.176.517.22.882.51.402.32.739 1.008.675 1.535-.035.282-.056.553-.16.817a9.1 9.1 0 0 1-.233.558c-.18.38-.367.77-.614 1.11a16.182 16.182 0 0 1-1.664 1.947c-.518.527-1.05 1.052-1.52 1.622a4.674 4.674 0 0 0-.363.61c-.32.87-.518 1.793-.768 2.688-.273.99-.496 2.01-.838 2.98a25.345 25.345 0 0 1-.635 1.629c-.17.386-.332.783-.553 1.141-.485.796-1.038 1.6-1.71 2.25-.63.61-1.362 1.227-2.148 1.634-.575.294-1.163.544-1.803.647a6.035 6.035 0 0 1-1.735.043c-1.193-.151-2.46-.415-3.441-1.163-.372-.28-.709-.596-.947-1.008a4.917 4.917 0 0 1-.383-.842 5.06 5.06 0 0 1-.172-.662 16.932 16.932 0 0 1-.217-1.54c-.172-1.734-.136-3.476-.315-5.21a7.68 7.68 0 0 0-.207-1.036 14.86 14.86 0 0 0-.33-.942 5.398 5.398 0 0 0-.395-.68 4.826 4.826 0 0 0-.415-.407 8.511 8.511 0 0 0-1.27-.711c-1.01-.41-2.03-.807-3.018-1.274-.492-.23-.982-.47-1.471-.722-.822-.42-1.683-.848-2.345-1.514-.95-.965-1.833-2.165-2.097-3.523-.12-.64-.217-1.276-.155-1.923.047-.52.145-1.039.315-1.53.31-.916.687-1.825 1.153-2.672a14.796 14.796 0 0 1 1.69-2.453c.615-.713 1.363-1.26 2.185-1.716.19-.108.393-.195.588-.294.502-.242 1.043-.49 1.582-.619a31.451 31.451 0 0 1 2.672-.516 14.192 14.192 0 0 1 2.182-.183c.263 0 .53.01.795.028.96.068 1.923.132 2.886.195a21.2 21.2 0 0 0-.781-.214 6.738 6.738 0 0 1-1.38-.492c-.805-.412-1.466-.99-2.149-1.57a7.166 7.166 0 0 0-.946-.555 6.225 6.225 0 0 0-.878-.247c-.718-.062-1.44-.038-2.16-.033-.356.002-.714.011-1.07 0-.371-.02-.76-.026-1.12-.113-.518-.123-1.111-.335-1.483-.732-.388-.415-.666-.874-.779-1.431-.104-.502-.052-.92.026-1.42.082-.501.259-.974.48-1.431.299-.63.777-1.17 1.217-1.711.424-.591.756-1.217 1.076-1.874.155-.325.301-.652.452-.977-.516.021-1.031.04-1.547.092-1.911.297-3.766.925-5.55 1.652-.782.332-1.563.657-2.347.98-.958.41-1.88.868-2.794 1.367-.836.45-1.608 1.003-2.366 1.566a36.727 36.727 0 0 0-2.982 2.66c-.953.95-1.827 1.97-2.667 3.022a39.24 39.24 0 0 0-2.038 2.904c-.664 1.053-1.21 2.185-1.716 3.32-.153.38-.252.78-.386 1.17.52.548 1.05 1.077 1.607 1.588.62.567 1.194 1.168 1.761 1.791.558.62 1.158 1.236 1.6 1.95.75 1.207 1.008 2.607.947 4.013-.042.939-.202 1.876-.407 2.796-.337 1.53-.895 2.996-1.302 4.51-.195.713-.332 1.443-.537 2.158-.223.782-.57 1.495-.92 2.225-.125.327-.21.666-.304 1.003.405.628.789 1.273 1.227 1.873a26.69 26.69 0 0 0 2.89 2.924 78.14 78.14 0 0 0 2.954 2.471c1.12.852 2.29 1.67 3.562 2.272.736.275 1.485.527 2.212.826.054.021.109.033.163.052.068-.054.115-.127.19-.17a53.617 53.617 0 0 1 3.058-1.643c.817-.402 1.655-.75 2.516-1.05.812-.277 1.634-.419 2.49-.506a29.865 29.865 0 0 1 3.016-.132c.59 0 1.18.01 1.763.024.916.017 1.85.108 2.754.28.753.144 1.483.363 2.222.558 1.556.41 3.095.873 4.64 1.344.091.028.162.087.247.13.364-.191.732-.38 1.073-.605.963-.636 1.878-1.35 2.794-2.055a29.869 29.869 0 0 0 4.505-4.555c.483-.661.925-1.351 1.349-2.05.414-.683.826-1.375 1.132-2.11l-.014.038c.01-.023.019-.047.03-.07.566-1.45 1.1-2.907 1.505-4.409.383-1.431.565-2.91.79-4.369a26.92 26.92 0 0 0-.02.158l.004-.033.019-.141.007-.05-.012.083c.005-.028.007-.057.012-.087v-.005-.005c.007-.056.017-.113.024-.172l-.01.066c0-.01.003-.02.005-.03-.002.011-.002.026-.005.04l-.019.124.036-.273c.188-1.558.212-3.144.05-4.7z"/>
</svg>
