<svg xmlns="http://www.w3.org/2000/svg" width="61" height="56" viewBox="0 0 61 56">
    <path fill="#69CED7" fill-rule="nonzero" d="M60.587 30.639c-.053-3.25-.126-6.5-.126-9.756 0-3.457-.023-6.91-.144-10.367-.038-1.023-.826-1.874-1.879-1.874-.086 0-.163.04-.247.051a1.543 1.543 0 0 0-.78-.19c-.89.044-1.768-.003-2.652-.066a1.674 1.674 0 0 0-.514-.974c-.312-.465-.81-.809-1.393-.809h-.051c-1.36.044-2.725.086-4.083.14-.96.04-1.92.028-2.877.018-.56-.009-1.125-.014-1.685-.014-.252 0-.492.058-.714.156-.854.112-1.624.842-1.577 1.735 0 .011 0 .02.002.032-.439.005-.877.005-1.316.01-.096-1.86-.08-3.725-.138-5.59.091-.146.187-.293.234-.46a1.832 1.832 0 0 0-.185-1.4A1.836 1.836 0 0 0 38.89.38a5.73 5.73 0 0 0-.53-.023c-.404 0-.812.032-1.211.04-.71.018-1.419.018-2.128.036-1.379.028-2.756.04-4.135.054-1.458.014-2.914.053-4.372.077-1.603.028-3.209.018-4.812.014-.826 0-1.498.62-1.65 1.404-.097.22-.153.465-.151.718.014 1.288.028 2.576.049 3.862.014.798 0 1.59-.007 2.386-.322 0-.644 0-.966.002-.007-.272.002-.544-.01-.814-.039-1-.8-1.832-1.833-1.832-.283 0-.551.086-.803.214-1.174.098-2.338.195-3.502.219-1.582.037-3.171-.059-4.753-.135-.371-.019-.7.123-.994.32a1.824 1.824 0 0 0-1.144 1.651c-.007.419-.004.837-.009 1.256-.999.06-2 .116-2.994.19-.487.03-.917.166-1.269.521-.023.023-.033.056-.054.082-.905.2-1.607.978-1.612 1.93-.01 4.136.121 8.27.184 12.403C.247 28.772.14 32.6.343 36.412c.082 1.427.168 2.855.208 4.28.035 1.39.04 2.788.067 4.178.05 2.697.136 5.408.05 8.103-.015.456.179.862.468 1.186.285.709.983 1.174 1.792 1.225 1.911.12 3.827.004 5.743-.028 1.906-.035 3.812-.028 5.714-.03h1.654c1.38.004 2.76.009 4.14-.028 1.852-.04 3.705-.13 5.558-.144 1.255-.01 2.517-.005 3.777-.005 2.567.01 5.138.014 7.705-.095 1.911-.082 3.827-.144 5.738-.177 1.843-.033 3.691-.023 5.534-.105 3.127-.14 6.258-.095 9.376-.341.53-.045.984-.184 1.374-.568.194-.193.334-.43.43-.68.433-.32.732-.81.748-1.384.054-1.742.194-3.476.227-5.218.032-1.725.014-3.457.023-5.182.007-3.585-.023-7.173-.082-10.76zm-11.94-20.36c.691-.033 1.384-.063 2.075-.082.173-.002.348 0 .52 0-.025 1.5-.051 3.002-.086 4.5-.035 1.35.002 2.708.07 4.061-.166.005-.331.01-.495.012-.623.014-1.243.04-1.866.086-1.064.07-2.126.053-3.19.03-.077-1.349-.093-2.704-.121-4.055a711.374 711.374 0 0 0-.089-4.461c1.064-.021 2.123-.04 3.183-.091zM30.62 3.792c1.386.005 2.775.019 4.156.044.688.014 1.381.019 2.072.033l.107 1.964c.052.972.108 1.946.103 2.92-1.694.015-3.388.038-5.082.038-1.762 0-3.528.01-5.29.049-1.064.02-2.125.042-3.19.065-.006-.78-.023-1.56-.002-2.342.021-.876.033-1.753.047-2.63.894-.034 1.787-.064 2.681-.092 1.465-.049 2.93-.054 4.398-.049zM12.721 10.36c.89.007 1.78-.07 2.67-.14.02.422.053.842.063 1.263.018.981-.014 1.962-.033 2.948-.028 1.549-.021 3.09.002 4.636-.989.05-1.976.103-2.965.11-1.004.004-2.01-.019-3.013-.038a74.293 74.293 0 0 1-.121-4.322c-.002-1.492.06-2.98.126-4.468.509.002 1.017.014 1.526.011.579 0 1.162-.004 1.745 0zm33.915 40.697c-1.824.063-3.647.072-5.467.102-1.95.04-3.899.182-5.847.217-3.792.072-7.581.004-11.373.072-1.901.034-3.803.111-5.707.111-1.948 0-3.894-.018-5.843-.01-1.51.01-3.017.02-4.531.054-1.171.033-2.34.026-3.51-.011.026-3.22.029-6.44-.027-9.658-.033-1.923-.15-3.841-.213-5.764-.067-1.986-.032-3.971-.018-5.961.014-2.8 0-5.597-.063-8.391-.066-2.776-.028-5.55.004-8.324.623-.055 1.244-.116 1.865-.162 0 .495-.01.99-.012 1.483-.005 1.95.049 3.913.238 5.857-.01.067-.042.127-.042.197 0 .956.8 1.76 1.757 1.756 1.491-.01 2.977-.068 4.468-.072 1.554-.005 3.104-.096 4.653-.103.828-.004 1.505-.618 1.661-1.406.122-.23.203-.482.196-.756-.072-2.592.066-5.182.133-7.775 1.753-.044 3.505-.153 5.26-.216 1.743-.063 3.488-.049 5.231-.054 3.416-.018 6.837.028 10.257.082.77.014 1.545.016 2.32.02.037.794.088 1.584.11 2.375.027.909.037 1.815.048 2.72.014.89.005 1.783.11 2.664.014.124.049.228.072.342-.011.081-.049.154-.049.237 0 .986.831 1.828 1.83 1.823 2.856-.028 5.702-.174 8.56-.063 1.013.044 1.863-.874 1.863-1.855 0-.01-.005-.016-.005-.026.037-.142.086-.281.075-.437-.154-1.804-.073-3.61-.087-5.424-.007-.874.04-1.748.089-2.623.653.038 1.309.024 1.965-.002.13 3.336.228 6.668.247 10.007.019 3.552.18 7.107.261 10.66.077 3.264.1 6.533.112 9.8.005 1.548.038 3.101-.014 4.65-.032 1.14-.126 2.285-.217 3.427-1.663.13-3.327.23-4.993.246-1.792.014-3.577.133-5.367.191z"/>
</svg>
