<svg xmlns="http://www.w3.org/2000/svg" width="70" height="69" viewBox="0 0 70 69">
    <path fill="#69CED7" fill-rule="nonzero" d="M27.381 46.088c.008.052.013.104.02.156-.01-.07-.017-.136-.027-.203l.007.047zm1.17-17.912c.005.04.01.08.018.119l-.025-.183c0 .02.005.042.008.064zm-1.096 18.45l-.012-.086-.06-.412c.026.168.048.333.072.498zm-2.94-31.548c.013-.094.035-.188.047-.281.01-.072.013-.144.023-.218l-.07.499zm20.087 1.205l.013.098.03.215c-.013-.103-.028-.207-.043-.313zm-4.981 20.533c.002-.012.002-.027.005-.04-.008.062-.018.124-.025.183.007-.049.015-.096.02-.143zm.474-3.806c-.003.01-.003.02-.005.027a.582.582 0 0 1-.01.069l.015-.096zm-2.136-21.766c-.061-.024-.12-.051-.182-.076-.003 0-.003 0-.005-.003l.217.092c-.01-.003-.02-.008-.03-.013zm2.064 22.311c.002-.022.005-.047.01-.069l.007-.064c-.007.044-.012.089-.017.133zm.272 32.368c-.139-.059-.28-.118-.418-.178l-.051-.022c.153.07.31.134.469.2zM69.16 39.761c.02.788.022 1.57.01 2.358-.02 1.03-.845 1.886-1.887 1.886-.024 0-.046-.015-.071-.015-.03 0-.054.017-.084.015-.72-.042-1.454-.022-2.175-.018-.773 0-1.543 0-2.31-.014-.825-.015-1.645.061-2.464.064-.635.005-1.262-.01-1.896.032-.802.052-1.597.148-2.404.173-.83.027-1.66.064-2.489.059-1.78-.005-3.55.062-5.33.111-1.848.05-3.69.15-5.534.291-.015.139-.025.277-.042.415-.123.983-.274 1.965-.415 2.948-.167 1.419-.271 2.843-.375 4.268 1.237 1.066 2.42 2.197 3.656 3.266a93.379 93.379 0 0 0 3.634 2.972 33.934 33.934 0 0 1 2.274 1.943c.397.081.782.232 1.063.515.383.383.6.909.6 1.45 0 .592-.247 1.002-.6 1.449-1.07 1.36-2.132 2.72-3.26 4.033-.235.272-.544.425-.872.521a1.972 1.972 0 0 1-1.95.064 43.295 43.295 0 0 0-2.792-1.345c-1.187-.496-2.385-.96-3.57-1.461a41.518 41.518 0 0 1-1.357-.61c-.067-.032-.111-.106-.173-.15-.064.007-.121.039-.188.041-.353.02-.708.005-1.061-.01-.28-.01-.563-.017-.845-.017-1.14.017-2.283.032-3.428.032-.223 0-.427-.06-.627-.128-.756.338-1.511.686-2.257 1.041-.545.262-1.09.521-1.602.845-.526.335-1.066.642-1.607.96-.41.24-.84.464-1.232.73-.518.413-1.12.618-1.794.435a1.967 1.967 0 0 1-1.156-.889c-.01-.02-.01-.041-.02-.061-.256-.092-.495-.225-.651-.417-.284-.36-.55-.729-.825-1.09-.367-.466-.738-.93-1.1-1.399l.145.19-.43-.555c.094.12.19.247.285.368-.368-.477-.783-.956-1.057-1.496-.316-.603-.353-1.286 0-1.886.05-.084.143-.129.202-.203.018-.5.203-1 .578-1.382 1.476-1.508 3.01-2.967 4.485-4.476.63-.641 1.235-1.3 1.798-2 .451-.557.88-1.107 1.444-1.56a2.86 2.86 0 0 1 .755-.441c-.064-.454-.13-.906-.19-1.36.012.108.027.217.042.326-.185-1.35-.383-2.696-.57-4.041-.015-.1-.027-.198-.04-.297.008.06.015.119.025.178l-.045-.333-.02-.166.016.119-.102-.753-.002-.007a1.78 1.78 0 0 1-.064-.507c-.032-.256-.067-.51-.102-.767-.066.005-.128.04-.197.034-.904-.054-1.802-.14-2.71-.145-1.477-.005-2.946-.027-4.422-.037-1.827-.01-3.65-.052-5.478-.047-1.905.005-3.811.022-5.71.047-1.626.017-3.253.093-4.88.158-.35.31-.797.516-1.283.516-.911 0-1.679-.682-1.864-1.55-.138-.272-.237-.561-.237-.872 0-.282.064-.54.17-.78 0-.15.01-.299.003-.45-.023-.651.01-1.3-.005-1.952-.027-1.923-.158-3.844-.195-5.772-.003-.098.042-.182.054-.279-.025-.059-.07-.11-.086-.172a1.952 1.952 0 0 1 .195-1.486c.269-.465.666-.704 1.15-.884.78-.299 1.545-.605 2.316-.921 1.698-.736 3.372-1.528 5.105-2.177 1.7-.64 3.419-1.235 5.124-1.874 1.644-.615 3.271-1.266 4.9-1.91.83-.326 1.672-.62 2.501-.956.496-.202.992-.412 1.491-.617l-.069.03.072-.03c.118-.05.237-.099.355-.146-.114.045-.225.092-.336.136.4-.173.798-.358 1.215-.496-.022-.407-.064-.815-.067-1.222-.01-1.8.109-3.577.34-5.364.077-.563.149-1.128.287-1.679.136-.53.304-1.054.477-1.57.2-.6.456-1.187.73-1.755.237-.494.536-.96.926-1.35.153-.153.336-.277.501-.418-1.856.119-3.715.178-5.566.358-.484.052-1.035-.232-1.37-.562a1.96 1.96 0 0 1-.568-1.37c0-.514.21-1.005.567-1.37.388-.383.84-.521 1.37-.563 1.376-.111 2.743-.126 4.118-.131.965-.005 1.923-.02 2.883-.062.89-.042 1.785-.104 2.674-.116.155-.002.31 0 .469-.002-.07-.593-.136-1.183-.205-1.773-.07-.568.284-1.234.671-1.617a2.274 2.274 0 0 1 3.23 0c.461.462.604.988.67 1.617.063.58.1 1.163.146 1.743.16 0 .321-.003.482-.003 1.78 0 3.555.038 5.334.01 1.417-.02 2.832-.051 4.249-.069h.027c1.234 0 2.15 1.25 1.822 2.432-.284 1.039-1.309 1.543-2.32 1.345a6.52 6.52 0 0 0-.492-.002c-.099 0-.195 0-.289-.005-.4-.005-.802-.042-1.202-.047-1.607-.025-3.219-.057-4.828-.084.49.2.977.412 1.431.679a6.231 6.231 0 0 1 1.955 1.802c.336.479.568.997.788 1.538.232.56.437 1.118.582 1.71.228.956.373 1.936.507 2.908.18 1.388.21 2.768.212 4.162 1.78.682 3.547 1.41 5.273 2.21 1.622.75 3.234 1.518 4.853 2.264 1.555.718 3.11 1.414 4.648 2.164 1.536.746 3.051 1.548 4.614 2.242.647.262 1.3.51 1.95.768.35.13.699.269 1.052.39.247.089.508.145.75.242.311.088.583.246.81.469.227.232.387.503.476.81.107.387.047.794-.1 1.164-.01.785-.02 1.573-.038 2.358-.015.73-.057 1.464-.042 2.19.017.656.072 1.298.087 1.947zm-38.184 5.066l.017.126c-.007-.05-.012-.097-.02-.143v-.005c0 .007.003.014.003.022zM9.282 30.973c.089-.037.178-.076.269-.113-.012.005-.027.01-.04.017l-.23.096zm17.075 9.085l.212.002c-.13-.928-.264-1.859-.387-2.79-.284-2.024-.63-4.04-.88-6.072-.224-1.807-.46-3.62-.675-5.431-.025-.202-.035-.41-.057-.615-.205.062-.413.109-.612.188-.588.23-1.183.43-1.78.634-1.383.48-2.73 1.054-4.103 1.56-1.434.531-2.856 1.109-4.286 1.654-1.372.521-2.74 1.047-4.095 1.61-1.071.491-2.106 1.044-3.167 1.543-.738.35-1.494.661-2.242.987.008 1.901-.03 3.794.047 5.69.015.375.01.748.013 1.123.474-.002.948-.017 1.422-.012 1.99.02 3.979.099 5.966.121 1.886.022 3.765-.067 5.646-.099 1.58-.032 3.157-.027 4.737-.069.447-.01.899-.005 1.345 0 .358.005.719.005 1.082 0 .604 0 1.21-.024 1.814-.024zm3.5 21.79c-.093-.482-.22-.953-.308-1.437-.131-.72-.242-1.45-.368-2.17-.116-.671-.215-1.345-.326-2.014-.081.091-.165.18-.25.271-.597.674-1.211 1.338-1.821 1.997a329.173 329.173 0 0 1-4.019 4.256c.042.062.087.124.129.185.204.294.41.585.622.874.266.338.553.672.871.95.676-.362 1.36-.713 2.024-1.103a46.697 46.697 0 0 1 3.446-1.81zm6.399-.603c.153.008.306 0 .46 0 .016-.143.021-.289.041-.432.064-.59.111-1.182.24-1.76.049-.24.098-.476.14-.716.252-2.123.44-4.253.637-6.379.111-1.182.205-2.37.34-3.55.141-1.231.354-2.448.53-3.675.18-1.41.322-2.824.517-4.229l-.069.509c.178-1.35.329-2.703.511-4.054-.01.072-.017.144-.024.215l.044-.36c.007-.05.012-.099.02-.148l-.015.108c.136-1.098.26-2.194.405-3.29.017-.126.032-.252.05-.38-.013.098-.025.197-.04.298.032-.242.064-.484.098-.72l-.046.325c.005-.034.01-.066.012-.1l-.017.127c-.008.047-.013.094-.02.141.215-1.624.392-3.26.578-4.89.088-.778.13-1.555.204-2.333.065-.703.146-1.402.19-2.11.094-1.417.121-2.825.117-4.24-.005-.525.014-1.053-.005-1.579-.02-.494-.09-.982-.151-1.474a19.934 19.934 0 0 0-.26-1.582 12.224 12.224 0 0 0-.59-1.889 5.551 5.551 0 0 0-.431-.752 4.755 4.755 0 0 0-.45-.415 5.708 5.708 0 0 0-1.021-.543l-.294-.124c-.05-.022-.101-.042-.15-.064a.171.171 0 0 1-.033-.012l-.034-.015.03.012c-.364-.14-.732-.256-1.085-.427-.488-.23-.945-.526-1.402-.814-.155-.1-.271-.235-.392-.363-.045.017-.077.05-.121.064-.788.232-1.587.499-2.405.63-.6.098-1.197.214-1.77.407a3.823 3.823 0 0 0-.36.212c-.185.16-.365.33-.53.511a7.91 7.91 0 0 0-.578 1.064c-.245.644-.506 1.294-.684 1.96a17.752 17.752 0 0 0-.38 1.995c-.467 3.883-.032 7.852.474 11.71-.008-.059-.018-.12-.025-.18.012.082.022.166.035.247l.03.232-.016-.113c.467 3.342 1.013 6.667 1.462 10.012l-.047-.353c.215 1.565.447 3.12.681 4.68.062.39.121.778.173 1.17l.109.796c.024.155.044.318.066.488l-.037-.264c.013.101.027.203.042.304l.015.101v.005c.452 3.286.983 6.562 1.42 9.852.29 2.03.728 4.024 1.15 6.026.891.03 1.775.081 2.661.128zm8.24-1.673a243.823 243.823 0 0 1-3.21-2.743c-.103 1.071-.19 2.145-.327 3.217-.065.594-.094 1.19-.141 1.784 1.323.64 2.644 1.286 3.992 1.867.538.234 1.049.513 1.57.77.543-.61 1.083-1.222 1.626-1.834-.338-.326-.69-.637-1.044-.95a131.15 131.15 0 0 0-2.466-2.111zM65.405 40.26c-.02-.815-.057-1.627-.074-2.441-.027-1.442-.062-2.886-.08-4.33-1.332-.546-2.668-1.082-3.961-1.73-1.375-.685-2.748-1.376-4.128-2.05-2.54-1.244-5.157-2.328-7.756-3.44a179.6 179.6 0 0 0-4.715-1.86c-.02.329-.01.657-.037.985-.158 1.916-.41 3.82-.597 5.735-.195 1.957-.447 3.907-.672 5.86a2169.99 2169.99 0 0 0-.456 3.97c1.71-.08 3.418-.037 5.13-.037 1.779.004 3.549-.173 5.329-.19.83-.01 1.659-.006 2.488-.047.802-.038 1.602-.131 2.405-.178 1.454-.09 2.91-.099 4.359-.205.75-.057 1.508-.047 2.259-.032.168 0 .338-.01.506-.01zM23.074 21.879c-.008.002-.015.007-.022.01h.002a.05.05 0 0 1 .02-.01z"/>
</svg>
