<svg xmlns="http://www.w3.org/2000/svg" width="41" height="59" viewBox="0 0 41 59">
    <path fill="#69CED7" fill-rule="nonzero" d="M40.112 22.595c-.063-3.41-.362-6.811-.373-10.223-.008-1.458-.016-2.916-.054-4.376a1.738 1.738 0 0 0-.162-.675 1.691 1.691 0 0 0-.02-.775c-.098-.672-.37-1.301-.663-1.907a7.845 7.845 0 0 0-1.013-1.615c-.453-.575-1.065-1.022-1.666-1.435-.596-.412-1.236-.741-1.94-.93-1.55-.417-3.152-.574-4.75-.622C28.919.021 28.373 0 27.826 0c-.143 0-.287 0-.43.004-.735.021-1.47.033-2.207.04-1.535.016-3.073.016-4.612.018-1.554.005-3.113.036-4.667.013-1.567-.023-3.132-.04-4.698-.05C10.388.017 9.567.017 8.743.017 7.99.02 7.227.004 6.471.083c-.783.088-1.542.192-2.27.496-.381.158-.76.319-1.116.523-.243.137-.457.31-.674.477-.384.296-.716.585-.975 1.016-.209.346-.38.754-.519 1.13-.267.71-.294 1.47-.26 2.226-.074.18-.12.375-.12.579a102.49 102.49 0 0 1-.085 5.336c-.076 1.716-.13 3.428-.219 5.145C.063 20.404.05 23.8.058 27.198c.009 3.37.084 6.738.148 10.108.027 1.635.067 3.27.084 4.903.017 1.59-.004 3.176 0 4.762.008 3.136.027 6.275.013 9.408.023-.152.044-.306.063-.46l-.013.097c-.072.488-.088.896.175 1.338.23.385.609.676 1.044.793.15.042.302.03.455.03.188.074.388.122.6.12 3.391-.019 6.782-.094 10.173-.11 1.625-.009 3.251.03 4.877.066 1.51.036 3.024.071 4.54.067.938 0 1.877-.012 2.812-.031.882-.021 1.765-.098 2.647-.127.352-.013.664-.15.931-.342.209-.031.415-.087.607-.198.263-.154.47-.362.623-.616.16-.271.238-.558.238-.869.032-.283.017-.577.017-.856.004-.398.013-.793.019-1.187.002-.088 0-.173 0-.26 1.388.027 2.771.054 4.16.137.671.04 1.347.075 2.023.083.52.004 1.053.036 1.571-.023.48-.054.878-.152 1.232-.504.327-.32.51-.762.51-1.218 0-.073-.034-.14-.042-.215.14-.252.244-.527.257-.833.054-1.408.008-2.822.012-4.234.004-1.452.028-2.906.103-4.358.085-1.653.18-3.313.247-4.973.067-1.663.084-3.318.08-4.983-.013-3.372-.089-6.746-.152-10.118zm-3.961 21.08c-1.146.088-2.294.023-3.44-.006a62.191 62.191 0 0 0-1.524-.023c-.385 0-.77.021-1.156.032-.009-.465-.021-.927-.021-1.392 0-.433-.002-.868-.004-1.304.326-.006.652-.008.98-.016.763-.01 1.528.016 2.294.027.691.012 1.384.012 2.079.025.345.006.69-.004 1.038-.017.036 0 .072 0 .106-.002-.06.87-.125 1.741-.165 2.612-.002.033 0 .064-.002.096-.063-.004-.12-.036-.185-.032zM3.824 44.948c1.54-.048 3.077-.117 4.618-.181 1.685-.071 3.376-.058 5.06-.036 2.29.036 4.584.036 6.875.036h2.835c1.179.004 2.356.008 3.536.031.02.877.042 1.756.05 2.633v.146c-1.32.104-2.634.193-3.957.212-1.55.023-3.096.015-4.644.01-1.554 0-3.108.02-4.658.036-1.626.019-3.248.04-4.87.035-1.61 0-3.22-.029-4.826-.04l.002-.716c0-.725-.015-1.445-.021-2.166zm-.009-40.28c.082-.19.162-.38.24-.571a2.22 2.22 0 0 1 .055-.096c.06-.06.122-.116.186-.173.219-.148.448-.268.686-.38a6.925 6.925 0 0 1 1.39-.349c1.445-.156 2.917-.118 4.364-.096 1.598.023 3.197.088 4.797.134 1.514.044 3.029.098 4.547.106 1.542.013 3.09 0 4.631.019 2.096.027 4.204.05 6.286.3.514.08 1.026.168 1.534.279.375.079.751.158 1.114.279.37.185.714.404 1.05.648.21.17.394.354.57.556.235.337.435.7.608 1.072.095.244.17.484.219.74.008.06.019.119.03.175v.004-.002c.037.192.103.366.193.533-.004.05-.03.096-.03.148.125 3.6.192 7.2.367 10.793.084 1.675.103 3.345.103 5.022 0 1.675.036 3.35.055 5.028.03 3.014.004 6.028-.143 9.042-.438.033-.874.069-1.314.075-.695.012-1.388.016-2.079.027-.767.012-1.531.048-2.293.044-.331 0-.662-.007-.992-.01l-.002-.659c-.009-1.687.012-3.37-.017-5.053-.028-1.666-.143-3.33-.17-4.997-.064-3.366.027-6.727.08-10.09.027-1.7.123-3.405.161-5.106.024-.869-.751-1.6-1.617-1.6a1.63 1.63 0 0 0-1.617 1.6c-.024 1.785-.053 3.566-.072 5.346-.019 1.694-.107 3.385-.143 5.08a191.198 191.198 0 0 0-.036 5.037c.004 1.658.076 3.318.09 4.978.026 2.966.032 5.934.043 8.902l-.276-.002c-.643 0-1.285.025-1.927.027-.752.008-1.5.004-2.245.017-1.595.035-3.185.075-4.779.102-3.346.05-6.695.102-10.041.11-1.211 0-2.42.027-3.63.046-.02-1.464-.03-2.929-.039-4.389-.019-3.374-.135-6.75-.21-10.12-.04-1.675-.024-3.354-.02-5.028.009-1.694 0-3.393.028-5.087.038-1.716.042-3.43.086-5.14.036-1.516.1-3.029.13-4.54.045-.142.09-.286.079-.44-.05-.65-.143-1.312-.1-1.964.051-.254.125-.5.226-.74-.052.123-.103.244-.156.363zm19.371 50.42c-.903-.009-1.8-.009-2.7-.009-.644 0-1.288 0-1.927-.004-1.598-.01-3.192-.05-4.79-.04-1.63.01-3.265.071-4.895.088-1.68.014-3.363-.021-5.044-.042a226.633 226.633 0 0 1-.004-3.139c0-.333.002-.666.004-1 1.563-.016 3.123-.06 4.686-.072 1.685-.009 3.367.012 5.052.04 1.5.022 2.997.018 4.5.045 1.55.031 3.1.052 4.65.056.736 0 1.467-.004 2.2-.043.623-.034 1.244-.094 1.865-.142-.004.44 0 .88-.004 1.32-.015.948-.012 1.908-.071 2.856-1.171.054-2.342.098-3.522.085zm6.923-4.67c-.009-1.044-.02-2.087-.021-3.13 0-.12-.005-.236-.007-.355.293-.019.584-.044.876-.056a17.555 17.555 0 0 1 1.753.027c.564.023 1.124.067 1.689.098a10.04 10.04 0 0 0 1.89-.094 295.945 295.945 0 0 1-.01 3.7 84.791 84.791 0 0 1-1.925-.049c-1.41-.054-2.828-.1-4.245-.141zM2.52 1.488c-.04.03-.071.062-.111.09-.062.049-.129.09-.192.136.101-.073.2-.152.303-.227z"/>
</svg>
