<svg xmlns="http://www.w3.org/2000/svg" xmlns:xlink="http://www.w3.org/1999/xlink" width="36" height="36" viewBox="0 0 36 36">
    <defs>
        <path id="a" d="M0 0h35.903v35.903H0z"/>
    </defs>
    <g fill="none" fill-rule="evenodd">
        <path fill="#000" d="M23.333 13.556a.89.89 0 0 1 0-1.778.89.89 0 0 1 0 1.778M18 23.333A5.34 5.34 0 0 1 12.667 18 5.34 5.34 0 0 1 18 12.667 5.34 5.34 0 0 1 23.333 18 5.34 5.34 0 0 1 18 23.333M23.066 10H12.933A2.937 2.937 0 0 0 10 12.933v10.133A2.937 2.937 0 0 0 12.933 26h10.133A2.937 2.937 0 0 0 26 23.066V12.933A2.937 2.937 0 0 0 23.066 10"/>
        <path fill="#000" d="M15 18c0 1.654 1.347 3 3 3 1.655 0 3-1.346 3-3s-1.346-3-3-3c-1.653 0-3 1.346-3 3z"/>
        <g>
            <mask id="b" fill="#fff">
                <use xlink:href="#a"/>
            </mask>
            <path fill="#000" d="M28.75 23.35a5.454 5.454 0 0 1-5.448 5.448h-10.7a5.454 5.454 0 0 1-5.449-5.448v-10.7a5.454 5.454 0 0 1 5.448-5.448h10.701a5.454 5.454 0 0 1 5.448 5.448v10.7zM17.952 0C8.038 0 0 8.038 0 17.952c0 9.914 8.038 17.951 17.952 17.951 9.914 0 17.951-8.037 17.951-17.951S27.866 0 17.952 0z" mask="url(#b)"/>
        </g>
    </g>
</svg>
