<svg xmlns="http://www.w3.org/2000/svg" width="69" height="79" viewBox="0 0 69 79">
    <g fill="#025776" fill-rule="evenodd">
        <path d="M16.05 35.955a.297.297 0 0 0-.067.18c0 .17.138.306.308.306h.255a.303.303 0 0 0 .252-.139l.001-.002L36.271 9.972c.514-.467.596-.519.596-.519s2.284-1.492 3.703-3.462c1.42-1.97 2.73-3.687 2.73-3.687s.782-.823-.144-1.479L42.352.24c-.908-.68-1.468.306-1.468.306s-1.26 1.752-2.733 3.685c-1.472 1.931-2.225 4.538-2.225 4.538s-.028.095-.363.801L16.05 35.953v.002zM38.857 13.052s-.027.095-.364.802L22.16 35.95v.002a.297.297 0 0 0-.067.18.306.306 0 0 0 .31.306h.253a.302.302 0 0 0 .251-.139l.002-.002 16.294-22.042c.514-.467.596-.519.596-.519s2.284-1.491 3.704-3.462c1.42-1.97 2.73-3.687 2.73-3.687s.782-.823-.144-1.479l-.805-.585c-.908-.68-1.467.305-1.467.305s-1.26 1.753-2.733 3.685c-1.473 1.931-2.226 4.538-2.226 4.538M41.788 17.337s-.027.094-.363.801l-13.18 17.815-.001.002a.297.297 0 0 0-.066.18c0 .17.137.306.307.306h.256a.302.302 0 0 0 .251-.139l.002-.002 13.14-17.76c.513-.467.595-.518.595-.518s2.285-1.492 3.705-3.463c1.42-1.97 2.73-3.686 2.73-3.686s.781-.824-.145-1.48l-.804-.585c-.909-.68-1.468.306-1.468.306s-1.26 1.752-2.733 3.684c-1.472 1.932-2.226 4.539-2.226 4.539M23.34 18.138L10.156 35.952v.001a.295.295 0 0 0-.067.181.307.307 0 0 0 .31.305h.253a.303.303 0 0 0 .252-.139l.001-.001L24.048 18.54c.514-.467.595-.52.595-.52s2.285-1.491 3.705-3.462c1.42-1.97 2.73-3.687 2.73-3.687s.782-.823-.145-1.478l-.804-.586c-.908-.68-1.467.306-1.467.306s-1.26 1.752-2.733 3.684c-1.473 1.932-2.226 4.539-2.226 4.539s-.027.094-.363.801M4.443 36.439H4.7a.303.303 0 0 0 .251-.139l.002-.001L18.085 18.54c.515-.467.596-.52.596-.52s2.285-1.491 3.705-3.462c1.42-1.97 2.73-3.687 2.73-3.687s.781-.823-.145-1.478l-.804-.586c-.908-.68-1.467.306-1.467.306s-1.26 1.752-2.734 3.684c-1.472 1.932-2.225 4.539-2.225 4.539s-.027.094-.364.801L4.203 35.952l-.001.001a.295.295 0 0 0-.067.181c0 .168.138.305.308.305M44.72 21.621s-.027.095-.364.802L34.352 35.958l-.001.002a.295.295 0 0 0-.067.18c0 .17.138.306.308.306h.256a.303.303 0 0 0 .25-.139l.002-.002 9.965-13.48c.514-.467.595-.52.595-.52s2.285-1.49 3.705-3.461c1.42-1.971 2.73-3.687 2.73-3.687s.782-.824-.145-1.479l-.804-.586c-.908-.68-1.467.306-1.467.306s-1.26 1.752-2.733 3.684c-1.473 1.933-2.226 4.54-2.226 4.54M47.652 25.905s-.028.095-.364.802l-6.83 9.251-.001.002a.3.3 0 0 0-.066.18c0 .169.138.306.308.306h.256a.304.304 0 0 0 .25-.139l.003-.002 6.788-9.196c.514-.467.596-.519.596-.519s2.285-1.492 3.704-3.462c1.42-1.97 2.73-3.687 2.73-3.687s.782-.823-.145-1.479l-.804-.585c-.907-.68-1.467.305-1.467.305s-1.26 1.752-2.733 3.685c-1.473 1.931-2.225 4.538-2.225 4.538M50.583 30.19s-.027.094-.364.801l-3.669 4.967v.002a.297.297 0 0 0-.067.18c0 .169.139.306.308.306h.256a.304.304 0 0 0 .251-.139l.002-.002 3.627-4.911c.515-.468.596-.52.596-.52s2.285-1.491 3.705-3.462c1.42-1.97 2.73-3.686 2.73-3.686s.781-.824-.145-1.48l-.805-.585c-.907-.68-1.466.306-1.466.306s-1.26 1.752-2.733 3.684c-1.473 1.932-2.226 4.539-2.226 4.539M53.514 34.474s-.027.094-.363.801l-.494.683v.002a.295.295 0 0 0-.067.18c0 .17.138.305.308.305h.255a.305.305 0 0 0 .252-.138l.002-.002.452-.627c.514-.467.596-.52.596-.52s2.284-1.49 3.704-3.462c1.42-1.97 2.73-3.686 2.73-3.686s.782-.824-.144-1.48l-.805-.585c-.908-.68-1.467.306-1.467.306s-1.26 1.752-2.733 3.684c-1.473 1.932-2.226 4.539-2.226 4.539M57.562 36.012a.272.272 0 0 0-.032.126c0 .169.138.305.308.305h2.764c.075 0 .141-.03.194-.075.101-.127.2-.256.294-.387 1.42-1.97 2.73-3.687 2.73-3.687s.782-.823-.144-1.479l-.804-.586c-.908-.68-1.468.306-1.468.306s-1.26 1.752-2.733 3.685a12.035 12.035 0 0 0-1.109 1.792M63.466 36.015a.272.272 0 0 0-.032.126c0 .169.137.305.308.305h2.944a.303.303 0 0 0 .251-.139h.001c.154-.298.264-.787-.33-1.207l-.805-.586c-.908-.68-1.467.305-1.467.305s-.34.473-.87 1.194v.002M9.173 58.208c4.107 0 7.44-3.154 7.44-7.337 0-4.033-3.371-7.338-7.44-7.338-4.07 0-7.442 3.305-7.442 7.338 0 4.183 3.335 7.337 7.442 7.337m0-13.032c3.334 0 5.67 2.595 5.67 5.695a5.68 5.68 0 0 1-5.67 5.694 5.679 5.679 0 0 1-5.67-5.694c0-3.1 2.335-5.695 5.67-5.695M52.133 47.846c0-1.344-.678-2.67-1.865-3.361-1.13-.634-2.486-.653-3.75-.653h-2.147V57.91h1.772v-5.956h.734l4.182 5.956h2.148l-4.484-6.125c2.053-.242 3.41-1.922 3.41-3.94m-5.425 2.652h-.565V45.4h.47c1.752 0 3.862.316 3.862 2.52 0 2.24-1.959 2.576-3.767 2.576M59.764 47.174c0 1.96 1.47 2.876 3.09 3.566l.98.411c1.223.504 2.448 1.158 2.448 2.67 0 1.475-1.093 2.744-2.618 2.744-1.527 0-2.77-1.12-2.751-2.669l-1.79.373c.302 2.26 2.091 3.94 4.39 3.94 2.543 0 4.54-1.83 4.54-4.388 0-2.352-1.507-3.455-3.523-4.239l-1.018-.392c-.885-.335-1.977-.914-1.977-2.016 0-1.233 1.243-1.998 2.374-1.998 1.073 0 1.751.449 2.279 1.326l1.413-.84c-.773-1.363-2.073-2.13-3.655-2.13-2.147 0-4.182 1.364-4.182 3.642M34.326 64.595h-1.77v14.078h6.084v-1.606h-4.314zM47.473 64.595h-2.035v14.078h1.772v-5.9h1.016c2.695 0 4.974-1.14 4.974-4.108 0-2.577-1.356-4.07-5.727-4.07m.302 6.61h-.565v-5.041h.47c1.752 0 3.863.26 3.863 2.464 0 2.24-1.96 2.577-3.768 2.577M64.512 65.94c1.073 0 1.751.448 2.28 1.325l1.412-.84c-.773-1.363-2.072-2.129-3.654-2.129-2.148 0-4.184 1.363-4.184 3.642 0 1.959 1.47 2.875 3.09 3.565l.98.411c1.224.504 2.449 1.158 2.449 2.67 0 1.475-1.093 2.744-2.618 2.744-1.526 0-2.77-1.119-2.751-2.669l-1.79.373c.302 2.26 2.091 3.94 4.39 3.94 2.543 0 4.54-1.83 4.54-4.389 0-2.351-1.507-3.454-3.523-4.238l-1.018-.391c-.884-.336-1.977-.915-1.977-2.016 0-1.234 1.243-1.999 2.374-1.999M3.86 75.986h1.482v-3.825h3.86v-1.47h-3.86v-3.824H3.859v3.824H0v1.47h3.86zM12.399 78.673H14.3l.032-.07h-.049l4.897-10.76 4.879 10.83h1.902l-6.781-14.675zM35.862 57.91L29.08 43.236l-6.782 14.676h1.903l.032-.07h-.05l4.897-10.76 4.879 10.83z"/>
    </g>
</svg>
