<svg xmlns="http://www.w3.org/2000/svg" xmlns:xlink="http://www.w3.org/1999/xlink" width="37" height="36" viewBox="0 0 37 36">
    <defs>
        <path id="a" d="M0 0h37v36H0z"/>
    </defs>
    <g fill="none" fill-rule="evenodd">
        <mask id="b" fill="#fff">
            <use xlink:href="#a"/>
        </mask>
        <path fill="#000" d="M27.625 15.163c.008.184.013.37.013.556 0 5.686-4.448 12.242-12.582 12.242-2.497 0-4.822-.712-6.778-1.933.346.04.698.06 1.054.06 2.073 0 3.98-.687 5.493-1.841-1.936-.035-3.568-1.28-4.131-2.988a4.55 4.55 0 0 0 1.997-.074c-2.023-.396-3.548-2.134-3.548-4.22v-.054a4.485 4.485 0 0 0 2.003.539c-1.185-.771-1.967-2.089-1.967-3.581 0-.789.219-1.528.6-2.163a12.67 12.67 0 0 0 9.114 4.496 4.184 4.184 0 0 1-.115-.981c0-2.376 1.98-4.303 4.422-4.303 1.272 0 2.422.523 3.228 1.359a9.002 9.002 0 0 0 2.809-1.044 4.337 4.337 0 0 1-1.945 2.38 9.015 9.015 0 0 0 2.54-.677 8.832 8.832 0 0 1-2.207 2.227M18.5 0C8.283 0 0 8.059 0 18s8.283 18 18.5 18S37 27.941 37 18 28.717 0 18.5 0" mask="url(#b)"/>
    </g>
</svg>
