<svg xmlns="http://www.w3.org/2000/svg" width="84" height="76" viewBox="0 0 84 76">
    <g fill="#69CED7" fill-rule="nonzero" opacity=".9">
        <path d="M83.518 54.381l-3.98-3.963a1.626 1.626 0 0 0-2.306.01 1.642 1.642 0 0 0 .01 2.315l3.979 3.963a1.622 1.622 0 0 0 2.306-.01 1.642 1.642 0 0 0-.01-2.315zM75.61 46.748a1.448 1.448 0 0 0-2.046 0l-.003.002a1.446 1.446 0 0 0 1.024 2.469 1.447 1.447 0 0 0 1.025-2.471z"/>
        <path d="M61.257 53.85l15.871-15.855a6.162 6.162 0 0 0 0-8.71 6.127 6.127 0 0 0-2.973-1.643 6.135 6.135 0 0 0 .572-2.597 6.116 6.116 0 0 0-1.806-4.355 6.118 6.118 0 0 0-3.31-1.714 6.16 6.16 0 0 0-1.494-6.285 6.13 6.13 0 0 0-3.309-1.71c.204-.615.31-1.265.31-1.933a6.116 6.116 0 0 0-1.805-4.355 6.128 6.128 0 0 0-4.36-1.804c-1.045 0-2.05.26-2.944.746l-.158-.17A10.923 10.923 0 0 0 47.885 0H35.038c-.904 0-1.636.732-1.636 1.634v2.144c0 .858.145 1.693.423 2.478a6.162 6.162 0 0 0-2.367-.469 6.16 6.16 0 0 0-5.851 8.092 6.132 6.132 0 0 0-3.312 1.71 6.116 6.116 0 0 0-1.806 4.356c0 .666.107 1.315.31 1.93a6.12 6.12 0 0 0-3.308 1.713 6.165 6.165 0 0 0-1.233 6.948 6.162 6.162 0 0 0-2.974 10.357l3.264 3.26L.479 60.207a1.634 1.634 0 0 0 1.157 2.79c.419 0 .837-.159 1.157-.478L19.016 46.31c.919.524 1.961.804 3.047.804 1.647 0 3.195-.64 4.36-1.804a6.139 6.139 0 0 0 1.797-4.604 6.15 6.15 0 0 0 4.608-1.795 6.116 6.116 0 0 0 1.8-4.604 6.15 6.15 0 0 0 4.605-1.795 6.116 6.116 0 0 0 1.8-4.603 6.15 6.15 0 0 0 4.605-1.795 6.163 6.163 0 0 0 .409-8.26l10.86-10.85a2.874 2.874 0 0 1 2.046-.846c.773 0 1.499.3 2.045.847a2.87 2.87 0 0 1 .848 2.043c0 .772-.301 1.498-.848 2.044l-1.6 1.6-5.81 5.804a1.634 1.634 0 0 0 1.156 2.79c.419 0 .837-.16 1.157-.479l5.81-5.804a2.898 2.898 0 0 1 4.091 0 2.892 2.892 0 0 1 0 4.088l-1.601 1.6-4.209 4.204a1.634 1.634 0 0 0 1.157 2.79c.419 0 .837-.16 1.157-.478l4.208-4.205a2.875 2.875 0 0 1 2.046-.846c.773 0 1.5.3 2.046.846a2.87 2.87 0 0 1 .847 2.044c0 .772-.3 1.498-.847 2.044l-2.198 2.195-2.01 2.009a1.634 1.634 0 0 0 1.156 2.79c.419 0 .837-.16 1.157-.479l2.012-2.01a2.899 2.899 0 0 1 4.09.002 2.891 2.891 0 0 1 0 4.088L58.942 51.54a22.174 22.174 0 0 1-14.915 6.49 1.636 1.636 0 0 0-1.1.48l-14.66 14.702A1.633 1.633 0 0 0 29.424 76c.42 0 .84-.16 1.159-.48l10.784-10.814a15.219 15.219 0 0 0 9.236 2.374l8.44 8.432a1.633 1.633 0 0 0 2.314 0 1.634 1.634 0 0 0 0-2.312l-8.974-8.966a1.638 1.638 0 0 0-1.29-.473l-.52.043a11.952 11.952 0 0 1-6.826-1.485l1.051-1.054c6.219-.383 12.04-3.001 16.458-7.414zM24.11 43a2.875 2.875 0 0 1-2.046.846c-.772 0-1.499-.3-2.045-.846l-4.42-4.417a2.892 2.892 0 0 1 4.09-4.087l4.421 4.416a2.892 2.892 0 0 1 0 4.088zm6.405-6.4a2.899 2.899 0 0 1-4.091 0l-4.42-4.416-2.199-2.196a2.892 2.892 0 1 1 4.091-4.087l6.619 6.612a2.87 2.87 0 0 1 .848 2.044c0 .772-.301 1.498-.848 2.043zm6.406-6.398a2.899 2.899 0 0 1-4.092 0l-8.22-8.212a2.87 2.87 0 0 1-.847-2.044 2.886 2.886 0 0 1 2.893-2.889c.74 0 1.48.282 2.044.844l3.746 3.743 4.475 4.47a2.87 2.87 0 0 1 .848 2.044c0 .772-.301 1.498-.847 2.044zm6.405-6.4a2.898 2.898 0 0 1-4.092 0l-8.22-8.211-.003-.003-1.598-1.597a2.892 2.892 0 0 1 0-4.088 2.885 2.885 0 0 1 2.046-.845c.74 0 1.481.282 2.045.845l9.821 9.812a2.87 2.87 0 0 1 .848 2.044c0 .772-.3 1.498-.847 2.044zm.43-8.28l-4.494-4.489c.51.109 1.034.166 1.567.166h.036l4.49-.02a1.635 1.635 0 0 0-.008-3.27h-.008l-4.49.021h-.02a4.13 4.13 0 0 1-2.93-1.209 4.122 4.122 0 0 1-1.225-2.942v-.51h11.211c2.106 0 4.137.884 5.572 2.424l.066.072-9.767 9.757z"/>
    </g>
</svg>
