<svg xmlns="http://www.w3.org/2000/svg" width="84" height="84" viewBox="0 0 84 84">
    <g fill="#69CED7" fill-rule="nonzero" opacity=".9">
        <path d="M9.713 37.355a1.459 1.459 0 0 0-1.023-.424c-.381 0-.755.155-1.024.424a1.46 1.46 0 0 0-.425 1.024c0 .381.155.755.425 1.024.27.27.643.425 1.024.425.38 0 .754-.155 1.023-.425.27-.27.425-.643.425-1.024 0-.38-.155-.754-.425-1.024zM28.603 0C24.411 0 21 3.432 21 7.651v2.077c0 4.22 3.41 7.651 7.603 7.651s7.604-3.432 7.604-7.65V7.65C36.207 3.432 32.796 0 28.603 0zm4.375 9.728c0 2.427-1.962 4.402-4.375 4.402-2.412 0-4.374-1.975-4.374-4.402V7.651c0-2.427 1.962-4.402 4.374-4.402s4.375 1.975 4.375 4.402v2.077zM55.397 0c-4.193 0-7.604 3.432-7.604 7.651v2.077c0 4.22 3.411 7.651 7.604 7.651 4.192 0 7.603-3.432 7.603-7.65V7.65C63 3.432 59.59 0 55.397 0zm4.374 9.728c0 2.427-1.962 4.402-4.374 4.402-2.413 0-4.375-1.975-4.375-4.402V7.651c0-2.427 1.963-4.402 4.375-4.402s4.374 1.975 4.374 4.402v2.077z"/>
        <path d="M75.199 28.122a7.74 7.74 0 0 0 1.434-4.495V21.52c0-4.28-3.466-7.761-7.727-7.761-4.26 0-7.727 3.481-7.727 7.76v2.108a7.74 7.74 0 0 0 1.434 4.495 9.51 9.51 0 0 0-7.16 4.17 9.51 9.51 0 0 0-7.16-4.17 7.74 7.74 0 0 0 1.433-4.495V21.52c0-4.28-3.466-7.761-7.726-7.761-4.261 0-7.727 3.481-7.727 7.76v2.108a7.74 7.74 0 0 0 1.434 4.495 9.51 9.51 0 0 0-7.16 4.17 9.51 9.51 0 0 0-7.161-4.17 7.74 7.74 0 0 0 1.434-4.495V21.52c0-4.28-3.467-7.761-7.727-7.761s-7.727 3.481-7.727 7.76v2.108A7.74 7.74 0 0 0 8.8 28.122c-4.913.369-8.8 4.5-8.8 9.529v11.518a8.573 8.573 0 0 0 6.89 8.409v24.774c0 .91.735 1.648 1.641 1.648h13.125c.906 0 1.64-.738 1.64-1.648V57.578a8.54 8.54 0 0 0 5.25-3.365 8.541 8.541 0 0 0 5.25 3.365v24.774c0 .91.736 1.648 1.642 1.648h13.124c.906 0 1.641-.738 1.641-1.648V57.578a8.54 8.54 0 0 0 5.25-3.365 8.541 8.541 0 0 0 5.25 3.365v24.774c0 .91.735 1.648 1.64 1.648H75.47c.906 0 1.64-.738 1.64-1.648v-8.405c0-.91-.734-1.648-1.64-1.648-.906 0-1.64.738-1.64 1.648v6.757h-3.282V60.763c0-.91-.735-1.648-1.64-1.648-.907 0-1.641.738-1.641 1.648v19.941h-3.282V54.122h9.844v6.641c0 .91.735 1.648 1.64 1.648.907 0 1.641-.738 1.641-1.648v-3.185A8.573 8.573 0 0 0 84 49.168V37.652c0-5.029-3.887-9.16-8.801-9.529zm-64.55-6.602c0-2.462 1.993-4.465 4.445-4.465 2.451 0 4.445 2.003 4.445 4.465v2.107c0 2.462-1.994 4.465-4.445 4.465-2.452 0-4.446-2.003-4.446-4.465V21.52zm9.367 59.184h-3.282V60.763c0-.91-.734-1.648-1.64-1.648-.906 0-1.64.738-1.64 1.648v19.941h-3.282V54.122h9.844v26.582zm6.89-31.535a5.28 5.28 0 0 1-3.61 5.008V38.35c0-.91-.734-1.648-1.64-1.648-.906 0-1.64.738-1.64 1.648v12.476h-9.844v-6.543c0-.91-.735-1.648-1.64-1.648-.907 0-1.641.738-1.641 1.648v9.894a5.28 5.28 0 0 1-3.61-5.008V37.65c0-3.453 2.797-6.263 6.235-6.263h11.156c3.437 0 6.234 2.81 6.234 6.263v11.518zm10.649-27.65c0-2.461 1.994-4.464 4.445-4.464 2.451 0 4.445 2.003 4.445 4.465v2.107c0 2.462-1.994 4.465-4.445 4.465-2.451 0-4.445-2.003-4.445-4.465V21.52zm9.367 59.185H43.64V60.763c0-.91-.735-1.648-1.641-1.648s-1.64.738-1.64 1.648v19.941h-3.282V54.122h9.844v26.582zm6.89-31.535a5.28 5.28 0 0 1-3.609 5.008V38.35c0-.91-.735-1.648-1.64-1.648-.906 0-1.641.738-1.641 1.648v12.476h-9.844V38.35c0-.91-.735-1.648-1.64-1.648-.906 0-1.641.738-1.641 1.648v15.827a5.28 5.28 0 0 1-3.61-5.008V37.65c0-3.453 2.797-6.263 6.235-6.263h11.156c3.438 0 6.234 2.81 6.234 6.263v11.518zm10.649-27.65c0-2.461 1.994-4.464 4.445-4.464 2.452 0 4.446 2.003 4.446 4.465v2.107c0 2.462-1.994 4.465-4.446 4.465-2.451 0-4.445-2.003-4.445-4.465V21.52zm16.258 27.65a5.28 5.28 0 0 1-3.61 5.008V38.35c0-.91-.734-1.648-1.64-1.648-.906 0-1.64.738-1.64 1.648v12.476h-9.845V38.35c0-.91-.734-1.648-1.64-1.648-.906 0-1.64.738-1.64 1.648v15.827a5.28 5.28 0 0 1-3.61-5.008V37.65c0-3.453 2.797-6.263 6.234-6.263h11.156c3.438 0 6.235 2.81 6.235 6.263v11.518z"/>
        <path d="M76.334 66.32a1.456 1.456 0 0 0-1.024-.423c-.38 0-.754.155-1.024.424a1.46 1.46 0 0 0-.424 1.024c0 .382.155.754.424 1.024.27.27.643.424 1.024.424s.755-.155 1.024-.424c.27-.27.425-.643.425-1.024s-.155-.755-.425-1.024z"/>
    </g>
</svg>
