<svg xmlns="http://www.w3.org/2000/svg" width="84" height="84" viewBox="0 0 84 84">
    <g fill="#69CED7" fill-rule="nonzero" opacity=".9">
        <path d="M21.972 31.08L2.776 11.351a1.596 1.596 0 0 0-2.3 0 1.705 1.705 0 0 0 0 2.364l18.719 19.239-.004 2.303c0 .923.726 1.673 1.624 1.674h.003c.897 0 1.625-.747 1.626-1.669l.004-2.997c0-.444-.17-.87-.476-1.185zM36.763 19.19h-.002l-3.814.005L14.345.476a1.61 1.61 0 0 0-2.285 0 1.634 1.634 0 0 0 0 2.3l19.076 19.196c.303.305.714.476 1.143.476h.002l4.484-.006a1.621 1.621 0 0 0 1.614-1.629 1.621 1.621 0 0 0-1.616-1.624zM71.99.424A1.46 1.46 0 0 0 70.965 0c-.381 0-.755.155-1.024.424a1.46 1.46 0 0 0-.425 1.024c0 .381.155.755.425 1.024.269.27.643.425 1.024.425.38 0 .754-.155 1.023-.425.27-.27.425-.643.425-1.024 0-.38-.155-.754-.425-1.024zM67.589 5.54a1.66 1.66 0 0 0-2.319 0L51.202 19.37l-2.26-.004h-.023c-4.338 0-8.415 1.66-11.483 4.676l-1.473 1.448c-.64.63-.64 1.65 0 2.28.32.314.74.471 1.16.471.419 0 .838-.157 1.158-.472l1.474-1.448c2.448-2.407 5.702-3.731 9.164-3.731h.018l2.94.004h.003c.435 0 .852-.17 1.159-.472L67.589 7.82c.64-.63.64-1.65 0-2.28zM83.524 12.06a1.634 1.634 0 0 0-2.3 0L62.028 31.135a1.612 1.612 0 0 0-.476 1.145l.006 4.485c.002.891.73 1.613 1.627 1.613h.002a1.621 1.621 0 0 0 1.624-1.618l-.006-3.814 18.719-18.602a1.61 1.61 0 0 0 0-2.286zM83.517 69.62L64.522 50.776l.004-2.256a16.017 16.017 0 0 0-1.248-6.235 1.655 1.655 0 0 0-2.156-.885 1.632 1.632 0 0 0-.892 2.14c.663 1.585.998 3.259.995 4.975l-.004 2.936c0 .435.173.852.483 1.16l19.479 19.322c.322.32.744.48 1.167.48.422 0 .844-.16 1.167-.48a1.628 1.628 0 0 0 0-2.315zM71.94 81.224L52.864 62.028a1.612 1.612 0 0 0-1.143-.476h-.002l-4.484.006a1.621 1.621 0 0 0-1.614 1.629 1.621 1.621 0 0 0 1.616 1.624h.002l3.814-.006 18.602 18.719a1.607 1.607 0 0 0 2.285 0 1.634 1.634 0 0 0 0-2.3zM14.058 81.528a1.459 1.459 0 0 0-1.024-.425c-.38 0-.754.155-1.023.425a1.46 1.46 0 0 0-.425 1.024c0 .38.155.754.425 1.024.269.269.643.424 1.023.424a1.452 1.452 0 0 0 1.448-1.448c0-.381-.153-.755-.424-1.024z"/>
        <path d="M58.75 41.49a4.605 4.605 0 0 0-1.243-.883c.384-.68.59-1.451.59-2.254 0-1.231-.481-2.39-1.355-3.26a4.609 4.609 0 0 0-1.326-.923 4.607 4.607 0 0 0-.895-5.264 4.648 4.648 0 0 0-5.28-.893 4.615 4.615 0 0 0-.928-1.32 4.646 4.646 0 0 0-6.545 0l-6.56 6.536a4.672 4.672 0 0 0-1.977-3.4 4.671 4.671 0 0 0-3.554-.766 4.66 4.66 0 0 0-3.037 1.993l-4.5 6.687a16.117 16.117 0 0 0-2.757 9.053l.006 3.862L.48 69.5a1.633 1.633 0 0 0 0 2.315c.32.32.741.48 1.162.48.42 0 .84-.16 1.161-.48l19.39-19.321c.309-.308.482-.725.481-1.16l-.006-4.541a12.862 12.862 0 0 1 2.2-7.226l4.5-6.686c.213-.316.536-.529.911-.598a1.404 1.404 0 0 1 1.463 2.107l-1.758 2.89a2.047 2.047 0 0 0 .495 2.709 2.065 2.065 0 0 0 2.758-.166l10.853-10.814a1.347 1.347 0 0 1 1.899 0 1.327 1.327 0 0 1 .106 1.772l-6.422 6.414a1.633 1.633 0 0 0 0 2.315c.641.639 1.681.639 2.323 0l8.302-8.288a1.348 1.348 0 0 1 1.899 0c.523.522.523 1.37 0 1.892l-8.31 8.28a1.633 1.633 0 0 0 0 2.316c.321.32.742.48 1.162.48.42 0 .84-.16 1.161-.48l6.43-6.407a1.347 1.347 0 0 1 1.778.105c.253.253.393.59.393.946 0 .358-.14.694-.393.946l-6.316 6.294a1.633 1.633 0 0 0 0 2.315c.32.32.74.48 1.161.48.42 0 .841-.16 1.162-.48l4.223-4.209a1.347 1.347 0 0 1 1.778.106c.254.253.394.589.394.946s-.14.693-.394.946l-11.73 11.69a12.922 12.922 0 0 1-9.183 3.79h-.018l-2.946-.005h-.002c-.436 0-.854.173-1.162.48L16.123 76.86a1.633 1.633 0 0 0 0 2.315c.32.32.741.48 1.161.48.42 0 .841-.16 1.162-.48l14.781-14.73 2.264.004h.024c4.346 0 8.431-1.686 11.505-4.749l11.73-11.69a4.606 4.606 0 0 0 0-6.521z"/>
    </g>
</svg>
