<svg xmlns="http://www.w3.org/2000/svg" width="84" height="77" viewBox="0 0 84 77">
    <g fill="#69CED7" fill-rule="nonzero" opacity=".9">
        <path d="M35.784.422A1.467 1.467 0 0 0 34.759 0a1.446 1.446 0 0 0-1.448 1.44 1.446 1.446 0 0 0 1.448 1.439 1.444 1.444 0 0 0 1.448-1.44c0-.378-.154-.75-.423-1.017zM57.85 27.316l-1.347-6.9a14.37 14.37 0 0 0-3.911-7.398l-2.302-2.32V1.642C50.29.735 49.562 0 48.665 0c-.898 0-1.625.735-1.625 1.642v9.738c0 .436.172.854.478 1.162l2.779 2.802a11.09 11.09 0 0 1 3.018 5.707l1.346 6.9a1.015 1.015 0 0 1-.81 1.194 1.005 1.005 0 0 1-1.148-.757l-.695-2.867c-.246-1.01-1.165-1.654-2.187-1.529-1.022.125-1.763.97-1.763 2.011v13.358a.952.952 0 0 1-.946.957.95.95 0 0 1-.937-.83v-6.976c0-.907-.728-1.643-1.625-1.643H44.54c-.898 0-1.625.736-1.625 1.643v6.85c0 .089.004.178.009.266v2.188a.952.952 0 0 1-.946.956.952.952 0 0 1-.946-.956v-2.19c.005-.087.009-.175.009-.265v-6.85c0-.906-.727-1.642-1.625-1.642H39.408c-.897 0-1.625.736-1.625 1.643v6.975a.95.95 0 0 1-.937.83.952.952 0 0 1-.946-.955v-2.45c.005-.088.01-.176.01-.266v-4.134c0-.907-.728-1.643-1.626-1.643H34.275c-.897 0-1.625.736-1.625 1.643v4.26a.95.95 0 0 1-.937.83.952.952 0 0 1-.946-.956V22.206c0-2.968 1.145-5.757 3.225-7.853l1.797-1.81c.305-.309.477-.727.477-1.163V7.499c0-.907-.727-1.642-1.625-1.642-.897 0-1.625.735-1.625 1.642v3.199l-1.319 1.33c-2.695 2.716-4.18 6.33-4.18 10.178v14.44c0 2.339 1.883 4.241 4.196 4.241.402 0 .79-.059 1.16-.166.562 1.673 2.13 2.881 3.973 2.881.434 0 .852-.067 1.246-.191.625 1.55 2.131 2.645 3.887 2.645 1.755 0 3.261-1.095 3.887-2.645.393.124.812.191 1.246.191 2.313 0 4.196-1.902 4.196-4.24v-7.65a4.217 4.217 0 0 0 5.877-1.135c.651-.961.887-2.12.664-3.261zM40.711 60.264a4.243 4.243 0 0 0-.725-.93 4.234 4.234 0 0 0-.306-5.888c.343-.44.597-.948.745-1.502a4.225 4.225 0 0 0-4.655-5.277 4.234 4.234 0 0 0-.463-1.182 4.193 4.193 0 0 0-2.563-1.968 4.189 4.189 0 0 0-3.203.422l-6.594 3.81a4.273 4.273 0 0 0-.987-3.042 4.244 4.244 0 0 0-2.947-1.517 4.248 4.248 0 0 0-3.145 1.045l-5.27 4.61A14.271 14.271 0 0 0 6.19 55.94l-.842 3.163-4.53 2.617a1.636 1.636 0 0 0 1.635 2.833l5.117-2.957c.376-.217.65-.575.763-.995l1.016-3.819a11.01 11.01 0 0 1 3.402-5.473l5.27-4.61a1 1 0 0 1 .741-.247 1 1 0 0 1 .695.358c.34.406.308 1.011-.075 1.378l-2.121 2.034a1.996 1.996 0 0 0-.218 2.668 1.991 1.991 0 0 0 2.62.536l11.514-6.653a.945.945 0 0 1 .722-.095.948.948 0 0 1 .306 1.69l-5.985 3.458a1.636 1.636 0 0 0-.599 2.235l.003.004.002.004a1.634 1.634 0 0 0 2.233.598l5.904-3.411c.077-.045.151-.092.225-.14l1.886-1.09a.952.952 0 0 1 .952 1.65l-1.887 1.09c-.078.039-.156.08-.233.124L28.8 56.3a1.636 1.636 0 0 0-.379 2.53 1.634 1.634 0 0 0 2.018.312l6.012-3.474a.952.952 0 0 1 .84 1.704l-2.11 1.22c-.08.039-.158.08-.235.124l-3.564 2.06a1.636 1.636 0 0 0-.598 2.234c.29.502.84.826 1.421.826.277 0 .559-.07.816-.219l3.672-2.122a.946.946 0 0 1 1.187.403.954.954 0 0 1-.348 1.302l-5.238 3.026-7.208 4.166a10.957 10.957 0 0 1-8.391 1.099l-2.464-.665a1.632 1.632 0 0 0-1.243.163l-5.117 2.957a1.636 1.636 0 0 0 1.634 2.834l4.53-2.618 1.809.488c3.697.997 7.56.491 10.876-1.425l4.128-2.385 3.08-1.78.28-.162 4.958-2.865a4.23 4.23 0 0 0 1.545-5.77zM83.184 61.806l-4.52-2.603-.482-1.802a14.15 14.15 0 0 0-6.657-8.666l-7.193-4.142-5.227-3.01a4.194 4.194 0 0 0-3.196-.42 4.183 4.183 0 0 0-2.996 3.043 4.202 4.202 0 0 0-1.916.063 4.183 4.183 0 0 0-2.557 1.957c-.215.372-.37.768-.462 1.175a4.222 4.222 0 0 0-4.225 2.06 4.197 4.197 0 0 0 .324 4.679 4.2 4.2 0 0 0 .752 6.725l6.58 3.789a4.253 4.253 0 0 0-2.134 2.364 4.215 4.215 0 0 0 .16 3.294 4.233 4.233 0 0 0 2.472 2.19l6.61 2.25a14.263 14.263 0 0 0 8.326.274l3.151-.847 4.52 2.603a1.631 1.631 0 0 0 2.228-.595 1.624 1.624 0 0 0-.596-2.223l-5.107-2.94a1.633 1.633 0 0 0-1.24-.162l-3.804 1.022c-2.123.57-4.344.498-6.424-.21l-6.61-2.25a.998.998 0 0 1-.583-.517.994.994 0 0 1-.038-.777 1.01 1.01 0 0 1 1.227-.62l2.815.817a1.99 1.99 0 0 0 2.412-1.139 1.98 1.98 0 0 0-.844-2.525l-11.49-6.616a.947.947 0 0 1 .837-1.695l6 3.455a1.626 1.626 0 0 0 2.013-.309 1.624 1.624 0 0 0-.377-2.517l-5.892-3.392a4.422 4.422 0 0 0-.234-.124l-1.881-1.084a.947.947 0 1 1 .95-1.64l1.881 1.083c.073.049.148.096.225.14l5.891 3.393a1.626 1.626 0 0 0 2.014-.31 1.624 1.624 0 0 0-.377-2.516l-5.973-3.439a.938.938 0 0 1-.272-1.24.943.943 0 0 1 .577-.44.946.946 0 0 1 .72.094l2.108 1.213c.072.048.147.095.223.14l3.557 2.047a1.626 1.626 0 0 0 2.013-.308 1.624 1.624 0 0 0-.377-2.517l-3.665-2.11a.946.946 0 0 1 1.053-1.57l4.948 2.849.28.16 3.073 1.77 4.12 2.372a10.916 10.916 0 0 1 5.135 6.686l.656 2.454c.112.418.385.774.76.99l5.107 2.94a1.631 1.631 0 0 0 2.228-.595 1.624 1.624 0 0 0-.597-2.221z"/>
    </g>
</svg>
